SplineFontDB: 3.2
FontName: Untitled3
FullName: Untitled3
FamilyName: Untitled3
Weight: Regular
Copyright: Copyright (c) 2024, sumit
UComments: "2024-9-11: Created with FontForge (http://fontforge.org)"
Version: 001.000
ItalicAngle: 0
UnderlinePosition: -100
UnderlineWidth: 50
Ascent: 800
Descent: 200
InvalidEm: 0
LayerCount: 2
Layer: 0 0 "Back" 1
Layer: 1 0 "Fore" 0
XUID: [1021 819 1397410161 20063]
OS2Version: 0
OS2_WeightWidthSlopeOnly: 0
OS2_UseTypoMetrics: 1
CreationTime: 1726048813
ModificationTime: 1726048818
OS2TypoAscent: 0
OS2TypoAOffset: 1
OS2TypoDescent: 0
OS2TypoDOffset: 1
OS2TypoLinegap: 0
OS2WinAscent: 0
OS2WinAOffset: 1
OS2WinDescent: 0
OS2WinDOffset: 1
HheadAscent: 0
HheadAOffset: 1
HheadDescent: 0
HheadDOffset: 1
OS2Vendor: 'PfEd'
DEI: 91125
Encoding: ISO8859-1
UnicodeInterp: none
NameList: AGL For New Fonts
DisplaySize: -48
AntiAlias: 1
FitToEm: 0
WinInfo: 0 23 8
BeginChars: 256 94

StartChar: exclam
Encoding: 33 33 0
Width: 700
VWidth: 2000
Flags: HW
LayerCount: 2
Fore
SplineSet
405 1500 m 1
 405 450 l 1
 195 429 l 1
 195 1500 l 1
 405 1500 l 1
169 120 m 256
 169 138 172.5 155 179.5 171 c 128
 186.5 187 196 201 208 213 c 128
 220 225 233.833333333 234.5 249.5 241.5 c 128
 265.166666667 248.5 282 252 300 252 c 256
 318 252 335 248.5 351 241.5 c 128
 367 234.5 381 225 393 213 c 128
 405 201 414.5 187 421.5 171 c 128
 428.5 155 432 138 432 120 c 256
 432 102 428.5 84.8333333333 421.5 68.5 c 128
 414.5 52.1666666667 405.166666667 38 393.5 26 c 128
 381.833333333 14 368.166666667 4.33333333333 352.5 -3 c 128
 336.833333333 -10.3333333333 320 -14 302 -14 c 0
 283.333333333 -14 266 -10.3333333333 250 -3 c 128
 234 4.33333333333 220 14 208 26 c 128
 196 38 186.5 52.1666666667 179.5 68.5 c 128
 172.5 84.8333333333 169 102 169 120 c 256
EndSplineSet
EndChar

StartChar: quotedbl
Encoding: 34 34 1
Width: 800
VWidth: 2000
Flags: HW
LayerCount: 2
Fore
SplineSet
325 1500 m 1
 325 1400 l 2
 325 1374.66666667 322.666666667 1343.33333333 318 1306 c 128
 313.333333333 1268.66666667 308.333333333 1232 303 1196 c 0
 296.333333333 1154.66666667 289 1111.66666667 281 1067 c 1
 194 1067 l 1
 186 1111.66666667 178.666666667 1154.66666667 172 1196 c 0
 166.666666667 1232 161.666666667 1268.66666667 157 1306 c 128
 152.333333333 1343.33333333 150 1374.66666667 150 1400 c 2
 150 1500 l 1
 325 1500 l 1
626 1500 m 1
 626 1400 l 2
 626 1374.66666667 623.666666667 1343.33333333 619 1306 c 128
 614.333333333 1268.66666667 609.333333333 1232 604 1196 c 0
 597.333333333 1154.66666667 590 1111.66666667 582 1067 c 1
 495 1067 l 1
 487 1111.66666667 479.666666667 1154.66666667 473 1196 c 0
 467.666666667 1232 462.666666667 1268.66666667 458 1306 c 128
 453.333333333 1343.33333333 451 1374.66666667 451 1400 c 2
 451 1500 l 1
 626 1500 l 1
EndSplineSet
EndChar

StartChar: numbersign
Encoding: 35 35 2
Width: 1700
VWidth: 2000
Flags: HW
LayerCount: 2
Fore
SplineSet
1328 950 m 1
 1278 550 l 1
 1600 550 l 1
 1580 400 l 1
 1261 400 l 1
 1211 0 l 1
 1000 -20 l 1
 1054 400 l 1
 601 400 l 1
 553 0 l 1
 343 -20 l 1
 394 400 l 1
 100 400 l 1
 100 550 l 1
 411 550 l 1
 462 950 l 1
 100 950 l 1
 120 1100 l 1
 479 1100 l 1
 503 1285 l 1
 503 1500 l 1
 739 1520 l 1
 686 1100 l 1
 1139 1100 l 1
 1187 1500 l 1
 1398 1520 l 1
 1347 1100 l 1
 1600 1100 l 1
 1600 950 l 1
 1328 950 l 1
1120 950 m 1
 669 950 l 1
 620 550 l 1
 1071 550 l 1
 1120 950 l 1
EndSplineSet
EndChar

StartChar: dollar
Encoding: 36 36 3
Width: 1100
VWidth: 2000
Flags: HW
LayerCount: 2
Fore
SplineSet
892 1300 m 1
 880.666666667 1309.33333333 866.333333333 1318.83333333 849 1328.5 c 128
 831.666666667 1338.16666667 812.333333333 1347 791 1355 c 128
 769.666666667 1363 746.666666667 1370 722 1376 c 128
 697.333333333 1382 672 1386 646 1388 c 1
 646 863 l 1
 692 841.666666667 737.5 818.666666667 782.5 794 c 128
 827.5 769.333333333 867.833333333 740.333333333 903.5 707 c 128
 939.166666667 673.666666667 968 634.666666667 990 590 c 128
 1012 545.333333333 1023 492.666666667 1023 432 c 0
 1023 369.333333333 1013.66666667 313.333333333 995 264 c 128
 976.333333333 214.666666667 950.333333333 171.666666667 917 135 c 128
 883.666666667 98.3333333333 844 68.3333333333 798 45 c 128
 752 21.6666666667 701.333333333 5 646 -5 c 1
 646 -200 l 1
 500 -200 l 1
 500 -17 l 1
 461.333333333 -16.3333333333 423 -12.5 385 -5.5 c 128
 347 1.5 310.833333333 10.3333333333 276.5 21 c 128
 242.166666667 31.6666666667 210.333333333 43.8333333333 181 57.5 c 128
 151.666666667 71.1666666667 126.333333333 85.3333333333 105 100 c 1
 223 241 l 1
 236.333333333 232.333333333 251.666666667 222.666666667 269 212 c 128
 286.333333333 201.333333333 306.333333333 191.166666667 329 181.5 c 128
 351.666666667 171.833333333 377 163.833333333 405 157.5 c 128
 433 151.166666667 464.666666667 148 500 148 c 1
 500 721 l 1
 454 743.666666667 408.333333333 767.333333333 363 792 c 128
 317.666666667 816.666666667 277.333333333 844.333333333 242 875 c 128
 206.666666667 905.666666667 178 940.5 156 979.5 c 128
 134 1018.5 123 1064 123 1116 c 0
 123 1186 133.5 1245.16666667 154.5 1293.5 c 128
 175.5 1341.83333333 203.333333333 1381.5 238 1412.5 c 128
 272.666666667 1443.5 312.666666667 1467 358 1483 c 128
 403.333333333 1499 450.666666667 1509.66666667 500 1515 c 1
 500 1700 l 1
 646 1720 l 1
 646 1518 l 1
 716.666666667 1514 779.5 1501.83333333 834.5 1481.5 c 128
 889.5 1461.16666667 940 1434 986 1400 c 1
 892 1300 l 1
833 400 m 0
 833 430 827.333333333 457.5 816 482.5 c 128
 804.666666667 507.5 789.333333333 530.5 770 551.5 c 128
 750.666666667 572.5 727.666666667 592 701 610 c 128
 674.333333333 628 646 645.333333333 616 662 c 1
 616 158 l 1
 648.666666667 164 678.333333333 173.333333333 705 186 c 128
 731.666666667 198.666666667 754.5 214.833333333 773.5 234.5 c 128
 792.5 254.166666667 807.166666667 277.666666667 817.5 305 c 128
 827.833333333 332.333333333 833 364 833 400 c 0
313 1147 m 0
 313 1119.66666667 318.666666667 1095 330 1073 c 128
 341.333333333 1051 356.666666667 1030.66666667 376 1012 c 128
 395.333333333 993.333333333 418.333333333 976.333333333 445 961 c 128
 471.666666667 945.666666667 500 930.666666667 530 916 c 1
 530 1383 l 1
 502.666666667 1378.33333333 476.166666667 1370.66666667 450.5 1360 c 128
 424.833333333 1349.33333333 401.666666667 1334.83333333 381 1316.5 c 128
 360.333333333 1298.16666667 343.833333333 1275 331.5 1247 c 128
 319.166666667 1219 313 1185.66666667 313 1147 c 0
EndSplineSet
EndChar

StartChar: percent
Encoding: 37 37 4
Width: 1800
VWidth: 2000
Flags: HW
LayerCount: 2
Fore
SplineSet
590 0 m 1
 400 0 l 1
 1220 1500 l 1
 1400 1500 l 1
 590 0 l 1
398 764 m 0
 348.666666667 764 303.666666667 773.666666667 263 793 c 128
 222.333333333 812.333333333 187.333333333 839 158 873 c 128
 128.666666667 907 105.833333333 947.166666667 89.5 993.5 c 128
 73.1666666667 1039.83333333 65 1090 65 1144 c 0
 65 1197.33333333 72.8333333333 1246.83333333 88.5 1292.5 c 128
 104.166666667 1338.16666667 126.333333333 1377.66666667 155 1411 c 128
 183.666666667 1444.33333333 218.5 1470.33333333 259.5 1489 c 128
 300.5 1507.66666667 346.666666667 1517 398 1517 c 0
 446.666666667 1517 491.333333333 1507.66666667 532 1489 c 128
 572.666666667 1470.33333333 607.666666667 1444.33333333 637 1411 c 128
 666.333333333 1377.66666667 689.166666667 1338.16666667 705.5 1292.5 c 128
 721.833333333 1246.83333333 730 1197.33333333 730 1144 c 0
 730 1090 722.166666667 1039.83333333 706.5 993.5 c 128
 690.833333333 947.166666667 668.5 907 639.5 873 c 128
 610.5 839 575.666666667 812.333333333 535 793 c 128
 494.333333333 773.666666667 448.666666667 764 398 764 c 0
574 1133 m 0
 574 1163 570.666666667 1192.66666667 564 1222 c 128
 557.333333333 1251.33333333 547 1277.5 533 1300.5 c 128
 519 1323.5 500.833333333 1342.16666667 478.5 1356.5 c 128
 456.166666667 1370.83333333 429 1378 397 1378 c 0
 367 1378 341.166666667 1371.83333333 319.5 1359.5 c 128
 297.833333333 1347.16666667 280.166666667 1330.66666667 266.5 1310 c 128
 252.833333333 1289.33333333 242.666666667 1266 236 1240 c 128
 229.333333333 1214 226 1187 226 1159 c 0
 226 1128.33333333 229.333333333 1098.5 236 1069.5 c 128
 242.666666667 1040.5 253 1014.66666667 267 992 c 128
 281 969.333333333 299.166666667 951 321.5 937 c 128
 343.833333333 923 370.666666667 916 402 916 c 0
 432 916 457.833333333 922.166666667 479.5 934.5 c 128
 501.166666667 946.833333333 519 963.166666667 533 983.5 c 128
 547 1003.83333333 557.333333333 1027 564 1053 c 128
 570.666666667 1079 574 1105.66666667 574 1133 c 0
1400 -17 m 0
 1350.66666667 -17 1305.66666667 -7.33333333333 1265 12 c 128
 1224.33333333 31.3333333333 1189.33333333 58 1160 92 c 128
 1130.66666667 126 1107.83333333 166.166666667 1091.5 212.5 c 128
 1075.16666667 258.833333333 1067 309 1067 363 c 0
 1067 416.333333333 1074.83333333 465.833333333 1090.5 511.5 c 128
 1106.16666667 557.166666667 1128.33333333 596.666666667 1157 630 c 128
 1185.66666667 663.333333333 1220.5 689.333333333 1261.5 708 c 128
 1302.5 726.666666667 1348.66666667 736 1400 736 c 0
 1448.66666667 736 1493.33333333 726.666666667 1534 708 c 128
 1574.66666667 689.333333333 1609.66666667 663.333333333 1639 630 c 128
 1668.33333333 596.666666667 1691.16666667 557.166666667 1707.5 511.5 c 128
 1723.83333333 465.833333333 1732 416.333333333 1732 363 c 0
 1732 309 1724.16666667 258.833333333 1708.5 212.5 c 128
 1692.83333333 166.166666667 1670.5 126 1641.5 92 c 128
 1612.5 58 1577.66666667 31.3333333333 1537 12 c 128
 1496.33333333 -7.33333333333 1450.66666667 -17 1400 -17 c 0
1576 352 m 0
 1576 382 1572.66666667 411.666666667 1566 441 c 128
 1559.33333333 470.333333333 1549 496.5 1535 519.5 c 128
 1521 542.5 1502.83333333 561.166666667 1480.5 575.5 c 128
 1458.16666667 589.833333333 1431 597 1399 597 c 0
 1369 597 1343.16666667 590.833333333 1321.5 578.5 c 128
 1299.83333333 566.166666667 1282.16666667 549.666666667 1268.5 529 c 128
 1254.83333333 508.333333333 1244.66666667 485 1238 459 c 128
 1231.33333333 433 1228 406 1228 378 c 0
 1228 347.333333333 1231.33333333 317.5 1238 288.5 c 128
 1244.66666667 259.5 1255 233.666666667 1269 211 c 128
 1283 188.333333333 1301.16666667 170 1323.5 156 c 128
 1345.83333333 142 1372.66666667 135 1404 135 c 0
 1434 135 1459.83333333 141.166666667 1481.5 153.5 c 128
 1503.16666667 165.833333333 1521 182.166666667 1535 202.5 c 128
 1549 222.833333333 1559.33333333 246 1566 272 c 128
 1572.66666667 298 1576 324.666666667 1576 352 c 0
EndSplineSet
EndChar

StartChar: ampersand
Encoding: 38 38 5
Width: 1400
VWidth: 2000
Flags: HW
LayerCount: 2
Fore
SplineSet
1306 713 m 1
 1306 660.333333333 1301.83333333 608.5 1293.5 557.5 c 128
 1285.16666667 506.5 1272.16666667 456.666666667 1254.5 408 c 128
 1236.83333333 359.333333333 1214.5 312.666666667 1187.5 268 c 128
 1160.5 223.333333333 1128.66666667 181 1092 141 c 1
 1173 157 l 1
 1306 -20 l 1
 1083 -20 l 1
 1011 77 l 1
 961 43.6666666667 908 19.1666666667 852 3.5 c 128
 796 -12.1666666667 736 -20 672 -20 c 0
 603.333333333 -20 536 -8 470 16 c 128
 404 40 345 73.6666666667 293 117 c 128
 241 160.333333333 199.166666667 212.333333333 167.5 273 c 128
 135.833333333 333.666666667 120 400.666666667 120 474 c 0
 120 519.333333333 126.833333333 563 140.5 605 c 128
 154.166666667 647 173.166666667 686.333333333 197.5 723 c 128
 221.833333333 759.666666667 250.5 793.666666667 283.5 825 c 128
 316.5 856.333333333 352.333333333 884.333333333 391 909 c 1
 365.666666667 947 344.833333333 988.833333333 328.5 1034.5 c 128
 312.166666667 1080.16666667 304 1127.33333333 304 1176 c 0
 304 1230.66666667 313.166666667 1279.33333333 331.5 1322 c 128
 349.833333333 1364.66666667 375.333333333 1400.66666667 408 1430 c 128
 440.666666667 1459.33333333 479.833333333 1481.66666667 525.5 1497 c 128
 571.166666667 1512.33333333 621.333333333 1520 676 1520 c 0
 720.666666667 1520 761.5 1515 798.5 1505 c 128
 835.5 1495 869 1481.5 899 1464.5 c 128
 929 1447.5 955.333333333 1428 978 1406 c 128
 1000.66666667 1384 1020.66666667 1361.33333333 1038 1338 c 1
 958 1220 l 1
 946 1232.66666667 931.5 1247 914.5 1263 c 128
 897.5 1279 877.5 1294.16666667 854.5 1308.5 c 128
 831.5 1322.83333333 805.166666667 1334.83333333 775.5 1344.5 c 128
 745.833333333 1354.16666667 712.666666667 1359 676 1359 c 0
 652 1359 628.166666667 1355.16666667 604.5 1347.5 c 128
 580.833333333 1339.83333333 559.833333333 1328.33333333 541.5 1313 c 128
 523.166666667 1297.66666667 508.166666667 1278.5 496.5 1255.5 c 128
 484.833333333 1232.5 479 1205.66666667 479 1175 c 0
 479 1155.66666667 482.333333333 1134.66666667 489 1112 c 0
 491.666666667 1102 495.5 1091.33333333 500.5 1080 c 128
 505.5 1068.66666667 514.333333333 1053.16666667 527 1033.5 c 128
 539.666666667 1013.83333333 557.5 987.666666667 580.5 955 c 128
 603.5 922.333333333 634.333333333 879.666666667 673 827 c 128
 711.666666667 774.333333333 759.833333333 709.5 817.5 632.5 c 128
 875.166666667 555.5 945 463 1027 355 c 1
 1055 405 1075.83333333 458.5 1089.5 515.5 c 128
 1103.16666667 572.5 1110.66666667 631.333333333 1112 692 c 1
 1306 713 l 1
672 149 m 0
 714 149 754.166666667 154.166666667 792.5 164.5 c 128
 830.833333333 174.833333333 868.666666667 192.333333333 906 217 c 1
 452 828 l 1
 452 745 l 1
 398.666666667 705.666666667 358.166666667 663.333333333 330.5 618 c 128
 302.833333333 572.666666667 289 525 289 475 c 0
 289 426.333333333 299.5 382.333333333 320.5 343 c 128
 341.5 303.666666667 369.833333333 270 405.5 242 c 128
 441.166666667 214 482 192 528 176 c 128
 574 160 622 151 672 149 c 0
EndSplineSet
EndChar

StartChar: quotesingle
Encoding: 39 39 6
Width: 400
VWidth: 2000
Flags: HW
LayerCount: 2
Fore
SplineSet
150 1500 m 1
 325 1500 l 1
 325 1400 l 2
 325 1350.66666667 313.166666667 1297.5 289.5 1240.5 c 128
 265.833333333 1183.5 230.666666667 1125.66666667 184 1067 c 1
 140 1067 l 1
 141.333333333 1117.66666667 143 1165 145 1209 c 0
 145.666666667 1227.66666667 146.166666667 1246.66666667 146.5 1266 c 128
 146.833333333 1285.33333333 147.333333333 1303.5 148 1320.5 c 128
 148.666666667 1337.5 149.166666667 1353 149.5 1367 c 128
 149.833333333 1381 150 1392 150 1400 c 2
 150 1500 l 1
EndSplineSet
EndChar

StartChar: parenleft
Encoding: 40 40 7
Width: 900
VWidth: 2000
Flags: HW
LayerCount: 2
Fore
SplineSet
200 1180 m 2
 200 1239.33333333 203 1294.66666667 209 1346 c 128
 215 1397.33333333 228.166666667 1441.83333333 248.5 1479.5 c 128
 268.833333333 1517.16666667 298.833333333 1546.66666667 338.5 1568 c 128
 378.166666667 1589.33333333 432 1600 500 1600 c 0
 512.666666667 1600 526 1599.5 540 1598.5 c 128
 554 1597.5 567.333333333 1596 580 1594 c 128
 592.666666667 1592 604.166666667 1589.33333333 614.5 1586 c 128
 624.833333333 1582.66666667 633 1579 639 1575 c 1
 570 1449 l 1
 566 1449.66666667 561.333333333 1450.33333333 556 1451 c 0
 551.333333333 1451.66666667 546 1452.33333333 540 1453 c 128
 534 1453.66666667 527.333333333 1454 520 1454 c 0
 490.666666667 1454 467.833333333 1447 451.5 1433 c 128
 435.166666667 1419 423.166666667 1400 415.5 1376 c 128
 407.833333333 1352 403.333333333 1324.33333333 402 1293 c 128
 400.666666667 1261.66666667 400 1228.66666667 400 1194 c 2
 400 -14 l 2
 400 -48.6666666667 400.666666667 -81.6666666667 402 -113 c 128
 403.333333333 -144.333333333 407.833333333 -172 415.5 -196 c 128
 423.166666667 -220 435.166666667 -239 451.5 -253 c 128
 467.833333333 -267 490.666666667 -274 520 -274 c 0
 527.333333333 -274 534 -273.833333333 540 -273.5 c 128
 546 -273.166666667 551.333333333 -272.666666667 556 -272 c 0
 561.333333333 -271.333333333 566 -270.333333333 570 -269 c 1
 639 -395 l 1
 633 -399 624.833333333 -402.666666667 614.5 -406 c 128
 604.166666667 -409.333333333 592.666666667 -412 580 -414 c 128
 567.333333333 -416 554 -417.5 540 -418.5 c 128
 526 -419.5 512.666666667 -420 500 -420 c 0
 432 -420 378.166666667 -409.333333333 338.5 -388 c 128
 298.833333333 -366.666666667 268.833333333 -337.166666667 248.5 -299.5 c 128
 228.166666667 -261.833333333 215 -217.333333333 209 -166 c 128
 203 -114.666666667 200 -59.3333333333 200 0 c 2
 200 1180 l 2
EndSplineSet
EndChar

StartChar: parenright
Encoding: 41 41 8
Width: 900
VWidth: 2000
Flags: HW
LayerCount: 2
Fore
SplineSet
699 0 m 2
 699 -59.3333333333 696 -114.666666667 690 -166 c 128
 684 -217.333333333 670.833333333 -261.833333333 650.5 -299.5 c 128
 630.166666667 -337.166666667 600.166666667 -366.666666667 560.5 -388 c 128
 520.833333333 -409.333333333 467 -420 399 -420 c 0
 386.333333333 -420 373 -419.5 359 -418.5 c 128
 345 -417.5 331.666666667 -416 319 -414 c 128
 306.333333333 -412 294.833333333 -409.333333333 284.5 -406 c 128
 274.166666667 -402.666666667 266 -399 260 -395 c 1
 329 -269 l 1
 333 -270.333333333 337.666666667 -271.333333333 343 -272 c 0
 347.666666667 -272.666666667 353 -273.166666667 359 -273.5 c 128
 365 -273.833333333 371.666666667 -274 379 -274 c 0
 408.333333333 -274 431.166666667 -267 447.5 -253 c 128
 463.833333333 -239 475.833333333 -220 483.5 -196 c 128
 491.166666667 -172 495.666666667 -144.333333333 497 -113 c 128
 498.333333333 -81.6666666667 499 -48.6666666667 499 -14 c 2
 499 1194 l 2
 499 1228.66666667 498.333333333 1261.66666667 497 1293 c 128
 495.666666667 1324.33333333 491.166666667 1352 483.5 1376 c 128
 475.833333333 1400 463.833333333 1419 447.5 1433 c 128
 431.166666667 1447 408.333333333 1454 379 1454 c 0
 371.666666667 1454 365 1453.66666667 359 1453 c 128
 353 1452.33333333 347.666666667 1451.66666667 343 1451 c 0
 337.666666667 1450.33333333 333 1449.66666667 329 1449 c 1
 260 1575 l 1
 266 1579 274.166666667 1582.66666667 284.5 1586 c 128
 294.833333333 1589.33333333 306.333333333 1592 319 1594 c 128
 331.666666667 1596 345 1597.5 359 1598.5 c 128
 373 1599.5 386.333333333 1600 399 1600 c 0
 467 1600 520.833333333 1589.33333333 560.5 1568 c 128
 600.166666667 1546.66666667 630.166666667 1517.16666667 650.5 1479.5 c 128
 670.833333333 1441.83333333 684 1397.33333333 690 1346 c 128
 696 1294.66666667 699 1239.33333333 699 1180 c 2
 699 0 l 2
EndSplineSet
EndChar

StartChar: asterisk
Encoding: 42 42 9
Width: 1100
VWidth: 2000
Flags: HW
LayerCount: 2
Fore
SplineSet
631 994 m 1
 771 802 l 1
 672 712 l 1
 523 918 l 1
 499 990 l 1
 475 918 l 1
 335 726 l 1
 219 793 l 1
 367 996 l 1
 432 1041 l 1
 351 1045 l 1
 128 1118 l 1
 155 1249 l 1
 393 1172 l 1
 459 1120 l 1
 437 1202 l 1
 437 1436 l 1
 570 1450 l 1
 570 1198 l 1
 544 1118 l 1
 610 1168 l 1
 835 1240 l 1
 889 1118 l 1
 647 1040 l 1
 568 1037 l 1
 631 994 l 1
EndSplineSet
EndChar

StartChar: plus
Encoding: 43 43 10
Width: 1200
VWidth: 2000
Flags: HW
LayerCount: 2
Fore
SplineSet
100 700 m 1
 473 700 l 1
 473 1121 l 1
 628 1121 l 1
 628 700 l 1
 1000 700 l 1
 1000 545 l 1
 628 545 l 1
 628 122 l 1
 473 122 l 1
 473 545 l 1
 100 545 l 1
 100 700 l 1
EndSplineSet
EndChar

StartChar: comma
Encoding: 44 44 11
Width: 500
VWidth: 2000
Flags: HW
LayerCount: 2
Fore
SplineSet
102 133 m 0
 102 152.333333333 105.833333333 170.833333333 113.5 188.5 c 128
 121.166666667 206.166666667 131.833333333 221.333333333 145.5 234 c 128
 159.166666667 246.666666667 175 257 193 265 c 128
 211 273 230 277 250 277 c 0
 269.333333333 277 287.833333333 273.5 305.5 266.5 c 128
 323.166666667 259.5 338.833333333 249.333333333 352.5 236 c 128
 366.166666667 222.666666667 377.166666667 205.833333333 385.5 185.5 c 128
 393.833333333 165.166666667 398 142 398 116 c 0
 398 80.6666666667 395.833333333 46.5 391.5 13.5 c 128
 387.166666667 -19.5 378.166666667 -53 364.5 -87 c 128
 350.833333333 -121 331.333333333 -155.666666667 306 -191 c 128
 280.666666667 -226.333333333 247.333333333 -263 206 -301 c 1
 154 -278 l 1
 169.333333333 -248.666666667 183 -218.333333333 195 -187 c 0
 205 -161 214.166666667 -132.5 222.5 -101.5 c 128
 230.833333333 -70.5 235 -40.3333333333 235 -11 c 1
 218.333333333 -10.3333333333 202 -6.66666666667 186 0 c 128
 170 6.66666666667 155.666666667 15.8333333333 143 27.5 c 128
 130.333333333 39.1666666667 120.333333333 54 113 72 c 128
 105.666666667 90 102 110.333333333 102 133 c 0
EndSplineSet
EndChar

StartChar: hyphen
Encoding: 45 45 12
Width: 900
VWidth: 2000
Flags: HW
LayerCount: 2
Fore
SplineSet
200 600 m 1
 700 600 l 1
 700 445 l 1
 200 445 l 1
 200 600 l 1
EndSplineSet
EndChar

StartChar: period
Encoding: 46 46 13
Width: 600
VWidth: 2000
Flags: HW
LayerCount: 2
Fore
SplineSet
86 150 m 256
 86 172.666666667 90.3333333333 194 99 214 c 128
 107.666666667 234 119.5 251.5 134.5 266.5 c 128
 149.5 281.5 166.833333333 293.333333333 186.5 302 c 128
 206.166666667 310.666666667 227.333333333 315 250 315 c 256
 272.666666667 315 294 310.666666667 314 302 c 128
 334 293.333333333 351.5 281.5 366.5 266.5 c 128
 381.5 251.5 393.333333333 234 402 214 c 128
 410.666666667 194 415 172.666666667 415 150 c 256
 415 127.333333333 410.666666667 105.833333333 402 85.5 c 128
 393.333333333 65.1666666667 381.666666667 47.5 367 32.5 c 128
 352.333333333 17.5 335.166666667 5.5 315.5 -3.5 c 128
 295.833333333 -12.5 274.666666667 -17 252 -17 c 256
 229.333333333 -17 207.833333333 -12.5 187.5 -3.5 c 128
 167.166666667 5.5 149.5 17.5 134.5 32.5 c 128
 119.5 47.5 107.666666667 65.1666666667 99 85.5 c 128
 90.3333333333 105.833333333 86 127.333333333 86 150 c 256
EndSplineSet
EndChar

StartChar: slash
Encoding: 47 47 14
Width: 1100
VWidth: 2000
Flags: HW
LayerCount: 2
Fore
SplineSet
285 -100 m 1
 75 -100 l 1
 785 1600 l 1
 985 1600 l 1
 285 -100 l 1
EndSplineSet
EndChar

StartChar: zero
Encoding: 48 48 15
Width: 1300
VWidth: 2000
Flags: HW
LayerCount: 2
Fore
SplineSet
600 -17 m 0
 543.333333333 -17 491.333333333 -6.16666666667 444 15.5 c 128
 396.666666667 37.1666666667 354.166666667 66.6666666667 316.5 104 c 128
 278.833333333 141.333333333 245.833333333 185 217.5 235 c 128
 189.166666667 285 165.5 338.5 146.5 395.5 c 128
 127.5 452.5 113.333333333 511.166666667 104 571.5 c 128
 94.6666666667 631.833333333 90 691.333333333 90 750 c 0
 90 810 94 870.666666667 102 932 c 128
 110 993.333333333 122.666666667 1052.33333333 140 1109 c 128
 157.333333333 1165.66666667 179.5 1218.83333333 206.5 1268.5 c 128
 233.5 1318.16666667 265.833333333 1361.33333333 303.5 1398 c 128
 341.166666667 1434.66666667 384.5 1463.66666667 433.5 1485 c 128
 482.5 1506.33333333 538 1517 600 1517 c 0
 656.666666667 1517 708.666666667 1506.16666667 756 1484.5 c 128
 803.333333333 1462.83333333 845.833333333 1433.33333333 883.5 1396 c 128
 921.166666667 1358.66666667 954.166666667 1315 982.5 1265 c 128
 1010.83333333 1215 1034.5 1161.5 1053.5 1104.5 c 128
 1072.5 1047.5 1086.66666667 988.666666667 1096 928 c 128
 1105.33333333 867.333333333 1110 808 1110 750 c 0
 1110 690 1106 629.333333333 1098 568 c 128
 1090 506.666666667 1077.33333333 447.666666667 1060 391 c 128
 1042.66666667 334.333333333 1020.5 281.166666667 993.5 231.5 c 128
 966.5 181.833333333 934.166666667 138.666666667 896.5 102 c 128
 858.833333333 65.3333333333 815.333333333 36.3333333333 766 15 c 128
 716.666666667 -6.33333333333 661.333333333 -17 600 -17 c 0
297 793 m 0
 297 754.333333333 298.333333333 711.833333333 301 665.5 c 128
 303.666666667 619.166666667 309 572.5 317 525.5 c 128
 325 478.5 336.166666667 433 350.5 389 c 128
 364.833333333 345 383.5 305.833333333 406.5 271.5 c 128
 429.5 237.166666667 457.5 209.666666667 490.5 189 c 128
 523.5 168.333333333 562.666666667 158 608 158 c 0
 648.666666667 158 684.166666667 165.833333333 714.5 181.5 c 128
 744.833333333 197.166666667 771 218.5 793 245.5 c 128
 815 272.5 833 303.833333333 847 339.5 c 128
 861 375.166666667 872.166666667 413.333333333 880.5 454 c 128
 888.833333333 494.666666667 894.666666667 536.666666667 898 580 c 128
 901.333333333 623.333333333 903 665.666666667 903 707 c 0
 903 745.666666667 901.666666667 788.166666667 899 834.5 c 128
 896.333333333 880.833333333 891 927.333333333 883 974 c 128
 875 1020.66666667 863.833333333 1066.16666667 849.5 1110.5 c 128
 835.166666667 1154.83333333 816.5 1194 793.5 1228 c 128
 770.5 1262 742.5 1289.33333333 709.5 1310 c 128
 676.5 1330.66666667 637.333333333 1341 592 1341 c 0
 551.333333333 1341 515.833333333 1333.16666667 485.5 1317.5 c 128
 455.166666667 1301.83333333 429 1280.66666667 407 1254 c 128
 385 1227.33333333 367 1196 353 1160 c 128
 339 1124 327.833333333 1085.66666667 319.5 1045 c 128
 311.166666667 1004.33333333 305.333333333 962.5 302 919.5 c 128
 298.666666667 876.5 297 834.333333333 297 793 c 0
EndSplineSet
EndChar

StartChar: one
Encoding: 49 49 16
Width: 1300
VWidth: 2000
Flags: HW
LayerCount: 2
Fore
SplineSet
350 0 m 1
 350 160 l 1
 595 160 l 1
 595 1126 l 1
 653 1353 l 1
 517 1167 l 1
 305 979 l 1
 197 1100 l 1
 655 1520 l 1
 805 1500 l 1
 805 160 l 1
 1050 160 l 1
 1050 0 l 1
 350 0 l 1
EndSplineSet
EndChar

StartChar: two
Encoding: 50 50 17
Width: 1300
VWidth: 2000
Flags: HW
LayerCount: 2
Fore
SplineSet
152 0 m 1
 152 168 l 1
 184 218.666666667 218.5 268.5 255.5 317.5 c 128
 292.5 366.5 329.833333333 413.833333333 367.5 459.5 c 128
 405.166666667 505.166666667 442.333333333 548.5 479 589.5 c 128
 515.666666667 630.5 549.333333333 668 580 702 c 0
 614 739.333333333 646.333333333 774.5 677 807.5 c 128
 707.666666667 840.5 734.666666667 873.333333333 758 906 c 128
 781.333333333 938.666666667 800 971.833333333 814 1005.5 c 128
 828 1039.16666667 835 1075.66666667 835 1115 c 0
 835 1147 829 1177.16666667 817 1205.5 c 128
 805 1233.83333333 788.166666667 1258.5 766.5 1279.5 c 128
 744.833333333 1300.5 719 1317.16666667 689 1329.5 c 128
 659 1341.83333333 626 1348 590 1348 c 0
 549.333333333 1348 514.166666667 1342.5 484.5 1331.5 c 128
 454.833333333 1320.5 428.833333333 1306 406.5 1288 c 128
 384.166666667 1270 364.833333333 1249.83333333 348.5 1227.5 c 128
 332.166666667 1205.16666667 317 1182.66666667 303 1160 c 1
 162 1220 l 1
 179.333333333 1263.33333333 201.5 1303.16666667 228.5 1339.5 c 128
 255.5 1375.83333333 287.333333333 1407.16666667 324 1433.5 c 128
 360.666666667 1459.83333333 402.333333333 1480.33333333 449 1495 c 128
 495.666666667 1509.66666667 547.666666667 1517 605 1517 c 0
 672.333333333 1517 732.333333333 1505 785 1481 c 128
 837.666666667 1457 882.166666667 1425.5 918.5 1386.5 c 128
 954.833333333 1347.5 982.5 1303.33333333 1001.5 1254 c 128
 1020.5 1204.66666667 1030 1154.66666667 1030 1104 c 0
 1030 1052.66666667 1020.5 1003.83333333 1001.5 957.5 c 128
 982.5 911.166666667 958.833333333 867.166666667 930.5 825.5 c 128
 902.166666667 783.833333333 871.666666667 744.666666667 839 708 c 128
 806.333333333 671.333333333 776.333333333 637 749 605 c 0
 714.333333333 564.333333333 679.666666667 524.333333333 645 485 c 128
 610.333333333 445.666666667 577.166666667 407.166666667 545.5 369.5 c 128
 513.833333333 331.833333333 484.333333333 295.5 457 260.5 c 128
 429.666666667 225.5 406 192 386 160 c 1
 1056 160 l 1
 1056 0 l 1
 152 0 l 1
EndSplineSet
EndChar

StartChar: three
Encoding: 51 51 18
Width: 1300
VWidth: 2000
Flags: HW
LayerCount: 2
Fore
SplineSet
215 1340 m 1
 230 1500 l 1
 960 1500 l 1
 960 1360 l 1
 952 1333.33333333 938.5 1305.5 919.5 1276.5 c 128
 900.5 1247.5 878.166666667 1218.33333333 852.5 1189 c 128
 826.833333333 1159.66666667 798.833333333 1130.5 768.5 1101.5 c 128
 738.166666667 1072.5 707.666666667 1045 677 1019 c 1
 545 945 l 1
 551.666666667 946.333333333 560.166666667 947.166666667 570.5 947.5 c 128
 580.833333333 947.833333333 590.666666667 948 600 948 c 0
 664.666666667 948 724.833333333 940 780.5 924 c 128
 836.166666667 908 884.5 883.833333333 925.5 851.5 c 128
 966.5 819.166666667 998.833333333 778.166666667 1022.5 728.5 c 128
 1046.16666667 678.833333333 1058 620.333333333 1058 553 c 0
 1058 488.333333333 1046 429.666666667 1022 377 c 128
 998 324.333333333 965.166666667 277.5 923.5 236.5 c 128
 881.833333333 195.5 833 160.166666667 777 130.5 c 128
 721 100.833333333 661.166666667 76.3333333333 597.5 57 c 128
 533.833333333 37.6666666667 468 23.3333333333 400 14 c 128
 332 4.66666666667 265.333333333 0 200 0 c 1
 200 160 l 1
 255.333333333 162 309.666666667 167 363 175 c 128
 416.333333333 183 467 194.166666667 515 208.5 c 128
 563 222.833333333 607.333333333 240.333333333 648 261 c 128
 688.666666667 281.666666667 723.833333333 305.833333333 753.5 333.5 c 128
 783.166666667 361.166666667 806.333333333 392.333333333 823 427 c 128
 839.666666667 461.666666667 848 500.333333333 848 543 c 0
 848 591 837.833333333 631 817.5 663 c 128
 797.166666667 695 769.333333333 720.333333333 734 739 c 128
 698.666666667 757.666666667 657.166666667 770.833333333 609.5 778.5 c 128
 561.833333333 786.166666667 510.666666667 790 456 790 c 0
 434.666666667 790 411.5 789.5 386.5 788.5 c 128
 361.5 787.5 339 786.333333333 319 785 c 1
 319 940 l 1
 346.333333333 960 376 982.666666667 408 1008 c 128
 440 1033.33333333 472.333333333 1059.83333333 505 1087.5 c 128
 537.666666667 1115.16666667 569.5 1143.16666667 600.5 1171.5 c 128
 631.5 1199.83333333 659.666666667 1226.83333333 685 1252.5 c 128
 710.333333333 1278.16666667 731.666666667 1302 749 1324 c 128
 766.333333333 1346 777.666666667 1364.66666667 783 1380 c 1
 631 1340 l 1
 215 1340 l 1
EndSplineSet
EndChar

StartChar: four
Encoding: 52 52 19
Width: 1300
VWidth: 2000
Flags: HW
LayerCount: 2
Fore
SplineSet
1085 300 m 1
 905 300 l 1
 905 0 l 1
 695 0 l 1
 695 300 l 1
 100 300 l 1
 100 471 l 1
 584 1520 l 1
 773 1500 l 1
 358 600 l 1
 265 460 l 1
 695 460 l 1
 695 867 l 1
 905 850 l 1
 905 460 l 1
 1100 460 l 1
 1085 300 l 1
EndSplineSet
EndChar

StartChar: five
Encoding: 53 53 20
Width: 1300
VWidth: 2000
Flags: HW
LayerCount: 2
Fore
SplineSet
408 982 m 1
 412.666666667 984.666666667 420.833333333 989 432.5 995 c 128
 444.166666667 1001 458.666666667 1007 476 1013 c 128
 493.333333333 1019 513.166666667 1024.16666667 535.5 1028.5 c 128
 557.833333333 1032.83333333 582.666666667 1035 610 1035 c 0
 679.333333333 1035 741.166666667 1024.16666667 795.5 1002.5 c 128
 849.833333333 980.833333333 895.833333333 951.166666667 933.5 913.5 c 128
 971.166666667 875.833333333 999.833333333 831.666666667 1019.5 781 c 128
 1039.16666667 730.333333333 1049 676.333333333 1049 619 c 0
 1049 551.666666667 1037 489.5 1013 432.5 c 128
 989 375.5 956.166666667 324.166666667 914.5 278.5 c 128
 872.833333333 232.833333333 824.166666667 192.666666667 768.5 158 c 128
 712.833333333 123.333333333 653.5 94.1666666667 590.5 70.5 c 128
 527.5 46.8333333333 462.666666667 29.1666666667 396 17.5 c 128
 329.333333333 5.83333333333 264 0 200 0 c 1
 200 160 l 1
 250 161.333333333 300.666666667 167.5 352 178.5 c 128
 403.333333333 189.5 452.833333333 204.166666667 500.5 222.5 c 128
 548.166666667 240.833333333 592.833333333 263 634.5 289 c 128
 676.166666667 315 712.5 343.833333333 743.5 375.5 c 128
 774.5 407.166666667 799 441.666666667 817 479 c 128
 835 516.333333333 844 556 844 598 c 0
 844 632 838.5 665 827.5 697 c 128
 816.5 729 800.166666667 757.5 778.5 782.5 c 128
 756.833333333 807.5 729.666666667 827.666666667 697 843 c 128
 664.333333333 858.333333333 626.333333333 866 583 866 c 0
 549 866 518.333333333 863.833333333 491 859.5 c 128
 463.666666667 855.166666667 439.166666667 849.833333333 417.5 843.5 c 128
 395.833333333 837.166666667 377.333333333 830 362 822 c 128
 346.666666667 814 334 806.666666667 324 800 c 1
 200 800 l 1
 200 1500 l 1
 953 1500 l 1
 953 1340 l 1
 408 1340 l 1
 408 982 l 1
EndSplineSet
EndChar

StartChar: six
Encoding: 54 54 21
Width: 1300
VWidth: 2000
Flags: HW
LayerCount: 2
Fore
SplineSet
929 1344 m 1
 924.333333333 1345.33333333 917.5 1346.16666667 908.5 1346.5 c 128
 899.5 1346.83333333 891.333333333 1347 884 1347 c 0
 836 1347 789.333333333 1339.5 744 1324.5 c 128
 698.666666667 1309.5 656 1288.33333333 616 1261 c 128
 576 1233.66666667 539.166666667 1201 505.5 1163 c 128
 471.833333333 1125 442.166666667 1083.16666667 416.5 1037.5 c 128
 390.833333333 991.833333333 369.666666667 943 353 891 c 128
 336.333333333 839 325.333333333 785.333333333 320 730 c 1
 403 847 l 1
 419.666666667 857.666666667 439.166666667 867.833333333 461.5 877.5 c 128
 483.833333333 887.166666667 507.333333333 895.666666667 532 903 c 128
 556.666666667 910.333333333 581.666666667 916.166666667 607 920.5 c 128
 632.333333333 924.833333333 656.333333333 927 679 927 c 0
 737 927 792.833333333 919 846.5 903 c 128
 900.166666667 887 947.833333333 862.333333333 989.5 829 c 128
 1031.16666667 795.666666667 1064.5 752.833333333 1089.5 700.5 c 128
 1114.5 648.166666667 1127 585.666666667 1127 513 c 0
 1127 441 1114.83333333 372.833333333 1090.5 308.5 c 128
 1066.16666667 244.166666667 1032 187.833333333 988 139.5 c 128
 944 91.1666666667 891.333333333 53 830 25 c 128
 768.666666667 -3 700.666666667 -17 626 -17 c 0
 560.666666667 -17 502.833333333 -6.5 452.5 14.5 c 128
 402.166666667 35.5 358.333333333 63.3333333333 321 98 c 128
 283.666666667 132.666666667 252.5 172.333333333 227.5 217 c 128
 202.5 261.666666667 182.166666667 307.5 166.5 354.5 c 128
 150.833333333 401.5 139.666666667 448 133 494 c 128
 126.333333333 540 123 582 123 620 c 0
 123 699.333333333 131.166666667 776.666666667 147.5 852 c 128
 163.833333333 927.333333333 187.5 998.166666667 218.5 1064.5 c 128
 249.5 1130.83333333 287.333333333 1191.83333333 332 1247.5 c 128
 376.666666667 1303.16666667 427.5 1350.83333333 484.5 1390.5 c 128
 541.5 1430.16666667 604.166666667 1461.16666667 672.5 1483.5 c 128
 740.833333333 1505.83333333 814.333333333 1517 893 1517 c 0
 903 1517 914 1516.83333333 926 1516.5 c 128
 938 1516.16666667 947.333333333 1515.33333333 954 1514 c 1
 929 1344 l 1
329 597 m 1
 329 578.333333333 329.166666667 561.333333333 329.5 546 c 128
 329.833333333 530.666666667 330.833333333 515.666666667 332.5 501 c 128
 334.166666667 486.333333333 336.333333333 471.5 339 456.5 c 128
 341.666666667 441.5 345.333333333 425 350 407 c 0
 359.333333333 369 372 334.5 388 303.5 c 128
 404 272.5 423.5 245.833333333 446.5 223.5 c 128
 469.5 201.166666667 496.166666667 183.833333333 526.5 171.5 c 128
 556.833333333 159.166666667 591 153 629 153 c 0
 681.666666667 153 726.5 163 763.5 183 c 128
 800.5 203 830.666666667 229.5 854 262.5 c 128
 877.333333333 295.5 894.5 333 905.5 375 c 128
 916.5 417 922 459.666666667 922 503 c 0
 922 545 915.833333333 582 903.5 614 c 128
 891.166666667 646 873.666666667 672.5 851 693.5 c 128
 828.333333333 714.5 801.166666667 730.333333333 769.5 741 c 128
 737.833333333 751.666666667 702.666666667 757 664 757 c 0
 628 757 593 752.666666667 559 744 c 128
 525 735.333333333 493.166666667 723.666666667 463.5 709 c 128
 433.833333333 694.333333333 407.5 677.333333333 384.5 658 c 128
 361.5 638.666666667 343 618.333333333 329 597 c 1
EndSplineSet
EndChar

StartChar: seven
Encoding: 55 55 22
Width: 1300
VWidth: 2000
Flags: HW
LayerCount: 2
Fore
SplineSet
200 1500 m 1
 1100 1500 l 1
 1100 1370 l 2
 1100 1341.33333333 1089.16666667 1304.5 1067.5 1259.5 c 128
 1045.83333333 1214.5 1018.33333333 1164 985 1108 c 128
 951.666666667 1052 915.333333333 991.833333333 876 927.5 c 128
 836.666666667 863.166666667 799 797.166666667 763 729.5 c 128
 727 661.833333333 695.666666667 594 669 526 c 128
 642.333333333 458 625.333333333 392.333333333 618 329 c 0
 614.666666667 301.666666667 612.166666667 273.5 610.5 244.5 c 128
 608.833333333 215.5 607.5 186.666666667 606.5 158 c 128
 605.5 129.333333333 605 101.333333333 605 74 c 2
 605 0 l 1
 400 0 l 1
 400 20 400.166666667 46.8333333333 400.5 80.5 c 128
 400.833333333 114.166666667 401.666666667 149.666666667 403 187 c 128
 404.333333333 224.333333333 406.5 261.333333333 409.5 298 c 128
 412.5 334.666666667 416.666666667 366 422 392 c 0
 437.333333333 463.333333333 459.333333333 533.5 488 602.5 c 128
 516.666666667 671.5 547.833333333 737.833333333 581.5 801.5 c 128
 615.166666667 865.166666667 649.666666667 925.333333333 685 982 c 128
 720.333333333 1038.66666667 752.333333333 1090.16666667 781 1136.5 c 128
 809.666666667 1182.83333333 833.166666667 1223.33333333 851.5 1258 c 128
 869.833333333 1292.66666667 879 1320 879 1340 c 1
 200 1340 l 1
 200 1500 l 1
EndSplineSet
EndChar

StartChar: eight
Encoding: 56 56 23
Width: 1300
VWidth: 2000
Flags: HW
LayerCount: 2
Fore
SplineSet
611 1517 m 0
 671.666666667 1517 728 1508.66666667 780 1492 c 128
 832 1475.33333333 876.833333333 1451.33333333 914.5 1420 c 128
 952.166666667 1388.66666667 981.666666667 1350.66666667 1003 1306 c 128
 1024.33333333 1261.33333333 1035 1211 1035 1155 c 0
 1035 1115.66666667 1029.16666667 1080.66666667 1017.5 1050 c 128
 1005.83333333 1019.33333333 990 991.833333333 970 967.5 c 128
 950 943.166666667 926.833333333 921.166666667 900.5 901.5 c 128
 874.166666667 881.833333333 846.333333333 863.333333333 817 846 c 1
 866.333333333 824 910.5 798.833333333 949.5 770.5 c 128
 988.5 742.166666667 1021.5 710.166666667 1048.5 674.5 c 128
 1075.5 638.833333333 1096.16666667 599 1110.5 555 c 128
 1124.83333333 511 1132 462.666666667 1132 410 c 0
 1132 336 1117.33333333 272.166666667 1088 218.5 c 128
 1058.66666667 164.833333333 1019.83333333 120.5 971.5 85.5 c 128
 923.166666667 50.5 868.166666667 24.6666666667 806.5 8 c 128
 744.833333333 -8.66666666667 681.666666667 -17 617 -17 c 0
 553.666666667 -17 492.666666667 -7.5 434 11.5 c 128
 375.333333333 30.5 323.5 58.5 278.5 95.5 c 128
 233.5 132.5 197.333333333 178.5 170 233.5 c 128
 142.666666667 288.5 129 352 129 424 c 0
 129 477.333333333 136.666666667 525.666666667 152 569 c 128
 167.333333333 612.333333333 188.333333333 651.333333333 215 686 c 128
 241.666666667 720.666666667 273.333333333 751.5 310 778.5 c 128
 346.666666667 805.5 386.333333333 829.333333333 429 850 c 1
 397.666666667 869.333333333 368.5 889.333333333 341.5 910 c 128
 314.5 930.666666667 290.833333333 952.833333333 270.5 976.5 c 128
 250.166666667 1000.16666667 234.166666667 1025.66666667 222.5 1053 c 128
 210.833333333 1080.33333333 205 1110.66666667 205 1144 c 0
 205 1208.66666667 217.833333333 1264.5 243.5 1311.5 c 128
 269.166666667 1358.5 302 1397.16666667 342 1427.5 c 128
 382 1457.83333333 425.833333333 1480.33333333 473.5 1495 c 128
 521.166666667 1509.66666667 567 1517 611 1517 c 0
600 760 m 1
 558 742 520.166666667 722.166666667 486.5 700.5 c 128
 452.833333333 678.833333333 424.166666667 654.166666667 400.5 626.5 c 128
 376.833333333 598.833333333 358.5 567.666666667 345.5 533 c 128
 332.5 498.333333333 326 458.666666667 326 414 c 0
 326 374 334.166666667 337.666666667 350.5 305 c 128
 366.833333333 272.333333333 388.5 244.166666667 415.5 220.5 c 128
 442.5 196.833333333 473.666666667 178.666666667 509 166 c 128
 544.333333333 153.333333333 580.666666667 147 618 147 c 0
 660.666666667 147 701.166666667 152.833333333 739.5 164.5 c 128
 777.833333333 176.166666667 811.5 193.333333333 840.5 216 c 128
 869.5 238.666666667 892.333333333 266.666666667 909 300 c 128
 925.666666667 333.333333333 934 371.666666667 934 415 c 0
 934 459.666666667 924.166666667 499.5 904.5 534.5 c 128
 884.833333333 569.5 859.166666667 600.833333333 827.5 628.5 c 128
 795.833333333 656.166666667 760.166666667 680.666666667 720.5 702 c 128
 680.833333333 723.333333333 640.666666667 742.666666667 600 760 c 1
641 923 m 1
 702.333333333 950.333333333 751.166666667 983.333333333 787.5 1022 c 128
 823.833333333 1060.66666667 842 1107.66666667 842 1163 c 0
 842 1196.33333333 835.166666667 1225 821.5 1249 c 128
 807.833333333 1273 790.666666667 1292.66666667 770 1308 c 128
 749.333333333 1323.33333333 726.5 1334.5 701.5 1341.5 c 128
 676.5 1348.5 652.666666667 1352 630 1352 c 0
 600 1352 571 1347.5 543 1338.5 c 128
 515 1329.5 490.333333333 1316.66666667 469 1300 c 128
 447.666666667 1283.33333333 430.5 1263.66666667 417.5 1241 c 128
 404.5 1218.33333333 398 1193.66666667 398 1167 c 0
 398 1136.33333333 404.5 1109.16666667 417.5 1085.5 c 128
 430.5 1061.83333333 448.166666667 1040.5 470.5 1021.5 c 128
 492.833333333 1002.5 518.666666667 985 548 969 c 128
 577.333333333 953 608.333333333 937.666666667 641 923 c 1
EndSplineSet
EndChar

StartChar: nine
Encoding: 57 57 24
Width: 1300
VWidth: 2000
Flags: HW
LayerCount: 2
Fore
SplineSet
848 663 m 1
 808.666666667 632.333333333 769.166666667 609.666666667 729.5 595 c 128
 689.833333333 580.333333333 645 573 595 573 c 0
 529.666666667 573 468.666666667 583.833333333 412 605.5 c 128
 355.333333333 627.166666667 306 658 264 698 c 128
 222 738 189 786.166666667 165 842.5 c 128
 141 898.833333333 129 961.666666667 129 1031 c 0
 129 1103 140.5 1168.66666667 163.5 1228 c 128
 186.5 1287.33333333 219.166666667 1338.5 261.5 1381.5 c 128
 303.833333333 1424.5 355.166666667 1457.83333333 415.5 1481.5 c 128
 475.833333333 1505.16666667 543.333333333 1517 618 1517 c 0
 684.666666667 1517 743.5 1506.66666667 794.5 1486 c 128
 845.5 1465.33333333 889.666666667 1438 927 1404 c 128
 964.333333333 1370 995.5 1331 1020.5 1287 c 128
 1045.5 1243 1065.5 1197.33333333 1080.5 1150 c 128
 1095.5 1102.66666667 1106.16666667 1055.66666667 1112.5 1009 c 128
 1118.83333333 962.333333333 1122 919.333333333 1122 880 c 0
 1122 802 1114.16666667 726.333333333 1098.5 653 c 128
 1082.83333333 579.666666667 1059.83333333 510.333333333 1029.5 445 c 128
 999.166666667 379.666666667 962 319.5 918 264.5 c 128
 874 209.5 823.833333333 161.833333333 767.5 121.5 c 128
 711.166666667 81.1666666667 648.833333333 48.8333333333 580.5 24.5 c 128
 512.166666667 0.166666666667 439 -13.6666666667 361 -17 c 1
 330 150 l 1
 410 154 485.166666667 173 555.5 207 c 128
 625.833333333 241 687.833333333 286.166666667 741.5 342.5 c 128
 795.166666667 398.833333333 838.5 464.5 871.5 539.5 c 128
 904.5 614.5 923.333333333 694.666666667 928 780 c 1
 848 663 l 1
916 953 m 1
 914 1003 906.666666667 1051.5 894 1098.5 c 128
 881.333333333 1145.5 863.333333333 1187.5 840 1224.5 c 128
 816.666666667 1261.5 787.166666667 1291.16666667 751.5 1313.5 c 128
 715.833333333 1335.83333333 674 1347 626 1347 c 0
 580.666666667 1347 540 1339.66666667 504 1325 c 128
 468 1310.33333333 437.333333333 1290 412 1264 c 128
 386.666666667 1238 367.166666667 1206.66666667 353.5 1170 c 128
 339.833333333 1133.33333333 333 1093 333 1049 c 0
 333 1005.66666667 338.5 965.333333333 349.5 928 c 128
 360.5 890.666666667 377.166666667 858.333333333 399.5 831 c 128
 421.833333333 803.666666667 450.166666667 782.166666667 484.5 766.5 c 128
 518.833333333 750.833333333 559 743 605 743 c 0
 640.333333333 743 674.166666667 748.666666667 706.5 760 c 128
 738.833333333 771.333333333 768.5 786.5 795.5 805.5 c 128
 822.5 824.5 846.333333333 846.666666667 867 872 c 128
 887.666666667 897.333333333 904 924.333333333 916 953 c 1
EndSplineSet
EndChar

StartChar: colon
Encoding: 58 58 25
Width: 600
VWidth: 2000
Flags: HW
LayerCount: 2
Fore
SplineSet
152 133 m 256
 152 153.666666667 156 173 164 191 c 128
 172 209 182.666666667 224.666666667 196 238 c 128
 209.333333333 251.333333333 224.833333333 261.833333333 242.5 269.5 c 128
 260.166666667 277.166666667 279.333333333 281 300 281 c 256
 320.666666667 281 340 277.166666667 358 269.5 c 128
 376 261.833333333 391.666666667 251.333333333 405 238 c 128
 418.333333333 224.666666667 428.833333333 209 436.5 191 c 128
 444.166666667 173 448 153.666666667 448 133 c 256
 448 112.333333333 444.166666667 92.8333333333 436.5 74.5 c 128
 428.833333333 56.1666666667 418.333333333 40.3333333333 405 27 c 128
 391.666666667 13.6666666667 376.166666667 3 358.5 -5 c 128
 340.833333333 -13 322 -17 302 -17 c 0
 281.333333333 -17 261.833333333 -13 243.5 -5 c 128
 225.166666667 3 209.333333333 13.6666666667 196 27 c 128
 182.666666667 40.3333333333 172 56.1666666667 164 74.5 c 128
 156 92.8333333333 152 112.333333333 152 133 c 256
152 647 m 256
 152 667.666666667 156 687 164 705 c 128
 172 723 182.666666667 738.666666667 196 752 c 128
 209.333333333 765.333333333 224.833333333 775.833333333 242.5 783.5 c 128
 260.166666667 791.166666667 279.333333333 795 300 795 c 256
 320.666666667 795 340 791.166666667 358 783.5 c 128
 376 775.833333333 391.666666667 765.333333333 405 752 c 128
 418.333333333 738.666666667 428.833333333 723 436.5 705 c 128
 444.166666667 687 448 667.666666667 448 647 c 256
 448 626.333333333 444.166666667 606.833333333 436.5 588.5 c 128
 428.833333333 570.166666667 418.333333333 554.333333333 405 541 c 128
 391.666666667 527.666666667 376.166666667 517 358.5 509 c 128
 340.833333333 501 322 497 302 497 c 0
 281.333333333 497 261.833333333 501 243.5 509 c 128
 225.166666667 517 209.333333333 527.666666667 196 541 c 128
 182.666666667 554.333333333 172 570.166666667 164 588.5 c 128
 156 606.833333333 152 626.333333333 152 647 c 256
EndSplineSet
EndChar

StartChar: semicolon
Encoding: 59 59 26
Width: 500
VWidth: 2000
Flags: HW
LayerCount: 2
Fore
SplineSet
102 647 m 256
 102 667.666666667 106 687 114 705 c 128
 122 723 132.666666667 738.666666667 146 752 c 128
 159.333333333 765.333333333 174.833333333 775.833333333 192.5 783.5 c 128
 210.166666667 791.166666667 229.333333333 795 250 795 c 256
 270.666666667 795 290 791.166666667 308 783.5 c 128
 326 775.833333333 341.666666667 765.333333333 355 752 c 128
 368.333333333 738.666666667 378.833333333 723 386.5 705 c 128
 394.166666667 687 398 667.666666667 398 647 c 256
 398 626.333333333 394.166666667 606.833333333 386.5 588.5 c 128
 378.833333333 570.166666667 368.333333333 554.333333333 355 541 c 128
 341.666666667 527.666666667 326.166666667 517 308.5 509 c 128
 290.833333333 501 272 497 252 497 c 0
 231.333333333 497 211.833333333 501 193.5 509 c 128
 175.166666667 517 159.333333333 527.666666667 146 541 c 128
 132.666666667 554.333333333 122 570.166666667 114 588.5 c 128
 106 606.833333333 102 626.333333333 102 647 c 256
102 133 m 0
 102 152.333333333 105.833333333 170.833333333 113.5 188.5 c 128
 121.166666667 206.166666667 131.833333333 221.333333333 145.5 234 c 128
 159.166666667 246.666666667 175 257 193 265 c 128
 211 273 230 277 250 277 c 0
 269.333333333 277 287.833333333 273.5 305.5 266.5 c 128
 323.166666667 259.5 338.833333333 249.333333333 352.5 236 c 128
 366.166666667 222.666666667 377.166666667 205.833333333 385.5 185.5 c 128
 393.833333333 165.166666667 398 142 398 116 c 0
 398 80.6666666667 395.833333333 46.5 391.5 13.5 c 128
 387.166666667 -19.5 378.166666667 -53 364.5 -87 c 128
 350.833333333 -121 331.333333333 -155.666666667 306 -191 c 128
 280.666666667 -226.333333333 247.333333333 -263 206 -301 c 1
 154 -278 l 1
 169.333333333 -248.666666667 183 -218.333333333 195 -187 c 0
 205 -161 214.166666667 -132.5 222.5 -101.5 c 128
 230.833333333 -70.5 235 -40.3333333333 235 -11 c 1
 218.333333333 -10.3333333333 202 -6.66666666667 186 0 c 128
 170 6.66666666667 155.666666667 15.8333333333 143 27.5 c 128
 130.333333333 39.1666666667 120.333333333 54 113 72 c 128
 105.666666667 90 102 110.333333333 102 133 c 0
EndSplineSet
EndChar

StartChar: less
Encoding: 60 60 27
Width: 1300
VWidth: 2000
Flags: HW
LayerCount: 2
Fore
SplineSet
1100 1211 m 1
 1100 1036 l 1
 413 670 l 1
 335 650 l 1
 412 630 l 1
 1100 266 l 1
 1100 91 l 1
 200 548 l 1
 200 757 l 1
 1100 1211 l 1
EndSplineSet
EndChar

StartChar: equal
Encoding: 61 61 28
Width: 1000
VWidth: 2000
Flags: HW
LayerCount: 2
Fore
SplineSet
100 700 m 1
 900 700 l 1
 900 560 l 1
 100 560 l 1
 100 700 l 1
100 400 m 1
 900 400 l 1
 900 260 l 1
 100 260 l 1
 100 400 l 1
EndSplineSet
EndChar

StartChar: greater
Encoding: 62 62 29
Width: 1300
VWidth: 2000
Flags: HW
LayerCount: 2
Fore
SplineSet
1100 757 m 1
 1100 548 l 1
 200 91 l 1
 200 266 l 1
 888 630 l 1
 965 650 l 1
 887 670 l 1
 200 1036 l 1
 200 1211 l 1
 1100 757 l 1
EndSplineSet
EndChar

StartChar: question
Encoding: 63 63 30
Width: 1100
VWidth: 2000
Flags: HW
LayerCount: 2
Fore
SplineSet
1000 1144 m 0
 1000 1102 994.333333333 1064.33333333 983 1031 c 128
 971.666666667 997.666666667 956.833333333 967.333333333 938.5 940 c 128
 920.166666667 912.666666667 899.166666667 887.333333333 875.5 864 c 128
 851.833333333 840.666666667 827.5 817.833333333 802.5 795.5 c 128
 777.5 773.166666667 753.166666667 750.333333333 729.5 727 c 128
 705.833333333 703.666666667 684.833333333 678.5 666.5 651.5 c 128
 648.166666667 624.5 633.333333333 594.5 622 561.5 c 128
 610.666666667 528.5 605 491.333333333 605 450 c 1
 395 429 l 1
 395 488.333333333 400.666666667 540.666666667 412 586 c 128
 423.333333333 631.333333333 438.166666667 671.5 456.5 706.5 c 128
 474.833333333 741.5 495.833333333 772.5 519.5 799.5 c 128
 543.166666667 826.5 567.5 851.166666667 592.5 873.5 c 128
 617.5 895.833333333 641.833333333 917 665.5 937 c 128
 689.166666667 957 710.166666667 977.666666667 728.5 999 c 128
 746.833333333 1020.33333333 761.666666667 1043.33333333 773 1068 c 128
 784.333333333 1092.66666667 790 1120.66666667 790 1152 c 0
 790 1186.66666667 783.333333333 1216.66666667 770 1242 c 128
 756.666666667 1267.33333333 738.5 1288 715.5 1304 c 128
 692.5 1320 665.5 1331.83333333 634.5 1339.5 c 128
 603.5 1347.16666667 570.333333333 1351 535 1351 c 0
 509.666666667 1351 483.5 1347.33333333 456.5 1340 c 128
 429.5 1332.66666667 403.166666667 1322 377.5 1308 c 128
 351.833333333 1294 327.166666667 1277 303.5 1257 c 128
 279.833333333 1237 258.666666667 1214.66666667 240 1190 c 1
 107 1300 l 1
 139.666666667 1344 175.166666667 1380.16666667 213.5 1408.5 c 128
 251.833333333 1436.83333333 290.833333333 1459 330.5 1475 c 128
 370.166666667 1491 409.5 1502 448.5 1508 c 128
 487.5 1514 524.666666667 1517 560 1517 c 0
 616.666666667 1517 671.333333333 1509.5 724 1494.5 c 128
 776.666666667 1479.5 823.5 1456.83333333 864.5 1426.5 c 128
 905.5 1396.16666667 938.333333333 1357.5 963 1310.5 c 128
 987.666666667 1263.5 1000 1208 1000 1144 c 0
369 120 m 256
 369 138 372.5 155 379.5 171 c 128
 386.5 187 396 201 408 213 c 128
 420 225 433.833333333 234.5 449.5 241.5 c 128
 465.166666667 248.5 482 252 500 252 c 256
 518 252 535 248.5 551 241.5 c 128
 567 234.5 581 225 593 213 c 128
 605 201 614.5 187 621.5 171 c 128
 628.5 155 632 138 632 120 c 256
 632 102 628.5 84.8333333333 621.5 68.5 c 128
 614.5 52.1666666667 605.166666667 38 593.5 26 c 128
 581.833333333 14 568.166666667 4.33333333333 552.5 -3 c 128
 536.833333333 -10.3333333333 520 -14 502 -14 c 0
 483.333333333 -14 466 -10.3333333333 450 -3 c 128
 434 4.33333333333 420 14 408 26 c 128
 396 38 386.5 52.1666666667 379.5 68.5 c 128
 372.5 84.8333333333 369 102 369 120 c 256
EndSplineSet
EndChar

StartChar: at
Encoding: 64 64 31
Width: 2000
VWidth: 2000
Flags: HW
LayerCount: 2
Fore
SplineSet
1005 1517 m 0
 1090.33333333 1517 1170 1505.83333333 1244 1483.5 c 128
 1318 1461.16666667 1385.66666667 1429.66666667 1447 1389 c 128
 1508.33333333 1348.33333333 1563 1299.66666667 1611 1243 c 128
 1659 1186.33333333 1699.33333333 1123.83333333 1732 1055.5 c 128
 1764.66666667 987.166666667 1789.66666667 913.666666667 1807 835 c 128
 1824.33333333 756.333333333 1833 675 1833 591 c 0
 1833 536.333333333 1831.33333333 482.833333333 1828 430.5 c 128
 1824.66666667 378.166666667 1818.66666667 328.333333333 1810 281 c 128
 1801.33333333 233.666666667 1789.16666667 190.166666667 1773.5 150.5 c 128
 1757.83333333 110.833333333 1737.66666667 76.6666666667 1713 48 c 128
 1688.33333333 19.3333333333 1658.33333333 -3.16666666667 1623 -19.5 c 128
 1587.66666667 -35.8333333333 1546 -44 1498 -44 c 0
 1461.33333333 -44 1426.66666667 -40.3333333333 1394 -33 c 128
 1361.33333333 -25.6666666667 1332.66666667 -13.8333333333 1308 2.5 c 128
 1283.33333333 18.8333333333 1263.33333333 40.1666666667 1248 66.5 c 128
 1232.66666667 92.8333333333 1223.66666667 124.666666667 1221 162 c 1
 1126 50 l 1
 1114.66666667 41.3333333333 1101.66666667 33 1087 25 c 128
 1072.33333333 17 1057.5 9.83333333333 1042.5 3.5 c 128
 1027.5 -2.83333333333 1012.5 -7.83333333333 997.5 -11.5 c 128
 982.5 -15.1666666667 968.666666667 -17 956 -17 c 0
 906 -17 858.166666667 -9.16666666667 812.5 6.5 c 128
 766.833333333 22.1666666667 726.833333333 45.1666666667 692.5 75.5 c 128
 658.166666667 105.833333333 630.833333333 143.5 610.5 188.5 c 128
 590.166666667 233.5 580 285.333333333 580 344 c 0
 580 406 592.5 459.833333333 617.5 505.5 c 128
 642.5 551.166666667 674.5 589.166666667 713.5 619.5 c 128
 752.5 649.833333333 796 672.5 844 687.5 c 128
 892 702.5 939 710 985 710 c 0
 1023 710 1056.5 708 1085.5 704 c 128
 1114.5 700 1139 695.333333333 1159 690 c 0
 1182.33333333 684 1202.66666667 677.333333333 1220 670 c 1
 1220 705 l 2
 1220 741.666666667 1217.16666667 774.5 1211.5 803.5 c 128
 1205.83333333 832.5 1195.5 856.833333333 1180.5 876.5 c 128
 1165.5 896.166666667 1144.66666667 911.166666667 1118 921.5 c 128
 1091.33333333 931.833333333 1057 937 1015 937 c 0
 979 937 944.333333333 934.5 911 929.5 c 128
 877.666666667 924.5 848 919 822 913 c 0
 791.333333333 905.666666667 763 898 737 890 c 1
 665 1024 l 1
 694.333333333 1037.33333333 727.666666667 1049.33333333 765 1060 c 0
 797 1069.33333333 835 1077.83333333 879 1085.5 c 128
 923 1093.16666667 971.666666667 1097 1025 1097 c 0
 1099.66666667 1097 1161.16666667 1087.33333333 1209.5 1068 c 128
 1257.83333333 1048.66666667 1296.16666667 1021.16666667 1324.5 985.5 c 128
 1352.83333333 949.833333333 1372.5 907 1383.5 857 c 128
 1394.5 807 1400 751.333333333 1400 690 c 2
 1400 179 l 2
 1400 168.333333333 1402.33333333 157.5 1407 146.5 c 128
 1411.66666667 135.5 1418.16666667 125.666666667 1426.5 117 c 128
 1434.83333333 108.333333333 1444.66666667 101.333333333 1456 96 c 128
 1467.33333333 90.6666666667 1479.66666667 88 1493 88 c 0
 1513 88 1530.33333333 96.6666666667 1545 114 c 128
 1559.66666667 131.333333333 1572.33333333 153.666666667 1583 181 c 128
 1593.66666667 208.333333333 1602.16666667 238.5 1608.5 271.5 c 128
 1614.83333333 304.5 1620 336.666666667 1624 368 c 128
 1628 399.333333333 1630.66666667 428 1632 454 c 128
 1633.33333333 480 1634 499.666666667 1634 513 c 0
 1634 590.333333333 1628.66666667 665 1618 737 c 128
 1607.33333333 809 1591 876.166666667 1569 938.5 c 128
 1547 1000.83333333 1519 1057.66666667 1485 1109 c 128
 1451 1160.33333333 1410.33333333 1204.33333333 1363 1241 c 128
 1315.66666667 1277.66666667 1261.66666667 1306 1201 1326 c 128
 1140.33333333 1346 1072.33333333 1356 997 1356 c 0
 925.666666667 1356 860.833333333 1346.33333333 802.5 1327 c 128
 744.166666667 1307.66666667 692.166666667 1280.66666667 646.5 1246 c 128
 600.833333333 1211.33333333 561.333333333 1170.16666667 528 1122.5 c 128
 494.666666667 1074.83333333 467.166666667 1023 445.5 967 c 128
 423.833333333 911 407.666666667 851.5 397 788.5 c 128
 386.333333333 725.5 381 661.666666667 381 597 c 0
 381 527 386 457.166666667 396 387.5 c 128
 406 317.833333333 421.666666667 251.333333333 443 188 c 128
 464.333333333 124.666666667 491.666666667 65.8333333333 525 11.5 c 128
 558.333333333 -42.8333333333 598.333333333 -89.8333333333 645 -129.5 c 128
 691.666666667 -169.166666667 745.5 -200.333333333 806.5 -223 c 128
 867.5 -245.666666667 936.333333333 -257 1013 -257 c 0
 1046.33333333 -257 1078.66666667 -254.5 1110 -249.5 c 128
 1141.33333333 -244.5 1170.33333333 -238 1197 -230 c 128
 1223.66666667 -222 1247.33333333 -213.333333333 1268 -204 c 128
 1288.66666667 -194.666666667 1305.66666667 -185.333333333 1319 -176 c 1
 1399 -326 l 1
 1340.33333333 -357.333333333 1278.83333333 -380.333333333 1214.5 -395 c 128
 1150.16666667 -409.666666667 1080.33333333 -417 1005 -417 c 0
 916.333333333 -417 834.166666667 -405.166666667 758.5 -381.5 c 128
 682.833333333 -357.833333333 614.166666667 -324.666666667 552.5 -282 c 128
 490.833333333 -239.333333333 436.333333333 -188.166666667 389 -128.5 c 128
 341.666666667 -68.8333333333 301.833333333 -3.16666666667 269.5 68.5 c 128
 237.166666667 140.166666667 212.833333333 216.833333333 196.5 298.5 c 128
 180.166666667 380.166666667 172 464.666666667 172 552 c 0
 172 641.333333333 180 727.166666667 196 809.5 c 128
 212 891.833333333 235.833333333 968.833333333 267.5 1040.5 c 128
 299.166666667 1112.16666667 338.5 1177.16666667 385.5 1235.5 c 128
 432.5 1293.83333333 486.833333333 1343.83333333 548.5 1385.5 c 128
 610.166666667 1427.16666667 679.166666667 1459.5 755.5 1482.5 c 128
 831.833333333 1505.5 915 1517 1005 1517 c 0
1220 533 m 1
 1201.33333333 535.666666667 1181.33333333 538.333333333 1160 541 c 0
 1142 543 1121.33333333 545 1098 547 c 128
 1074.66666667 549 1050.33333333 550 1025 550 c 0
 987.666666667 550 953.5 546.333333333 922.5 539 c 128
 891.5 531.666666667 864.666666667 519.833333333 842 503.5 c 128
 819.333333333 487.166666667 801.666666667 466 789 440 c 128
 776.333333333 414 770 382.333333333 770 345 c 0
 770 315 775 287.666666667 785 263 c 128
 795 238.333333333 808.666666667 217 826 199 c 128
 843.333333333 181 863.833333333 167.166666667 887.5 157.5 c 128
 911.166666667 147.833333333 936.666666667 143 964 143 c 0
 976.666666667 143 990.166666667 144.833333333 1004.5 148.5 c 128
 1018.83333333 152.166666667 1033.16666667 157 1047.5 163 c 128
 1061.83333333 169 1076.16666667 176 1090.5 184 c 128
 1104.83333333 192 1118.33333333 200 1131 208 c 0
 1161 227.333333333 1190.66666667 249.333333333 1220 274 c 1
 1220 533 l 1
EndSplineSet
EndChar

StartChar: A
Encoding: 65 65 32
Width: 1300
VWidth: 2000
Flags: HW
LayerCount: 2
Fore
SplineSet
62 0 m 1
 485 1300 l 1
 520 1500 l 1
 737 1520 l 1
 1235 0 l 1
 1035 0 l 1
 887 450 l 1
 392 450 l 1
 246 0 l 1
 62 0 l 1
639 1360 m 1
 603 1100 l 1
 441 600 l 1
 838 600 l 1
 675 1100 l 1
 639 1360 l 1
EndSplineSet
EndChar

StartChar: B
Encoding: 66 66 33
Width: 1300
VWidth: 2000
Flags: HW
LayerCount: 2
Fore
SplineSet
400 1147 m 1
 400 885 l 1
 510 885 l 2
 553.333333333 885 595.333333333 889.833333333 636 899.5 c 128
 676.666666667 909.166666667 712.833333333 924.5 744.5 945.5 c 128
 776.166666667 966.5 801.666666667 993.666666667 821 1027 c 128
 840.333333333 1060.33333333 850 1100.66666667 850 1148 c 0
 850 1192 840.666666667 1228.66666667 822 1258 c 128
 803.333333333 1287.33333333 778.833333333 1310.66666667 748.5 1328 c 128
 718.166666667 1345.33333333 684 1357.5 646 1364.5 c 128
 608 1371.5 570 1375 532 1375 c 0
 520.666666667 1375 508.333333333 1374.66666667 495 1374 c 128
 481.666666667 1373.33333333 468.166666667 1372.16666667 454.5 1370.5 c 128
 440.833333333 1368.83333333 427.5 1367 414.5 1365 c 128
 401.5 1363 390 1361 380 1359 c 1
 400 1147 l 1
190 0 m 1
 190 1290 l 1
 160 1490 l 1
 180 1492.66666667 203.166666667 1495.33333333 229.5 1498 c 128
 255.833333333 1500.66666667 283 1502.83333333 311 1504.5 c 128
 339 1506.16666667 366.666666667 1507.5 394 1508.5 c 128
 421.333333333 1509.5 445.666666667 1510 467 1510 c 0
 541 1510 612.5 1505.16666667 681.5 1495.5 c 128
 750.5 1485.83333333 811.666666667 1468.33333333 865 1443 c 128
 918.333333333 1417.66666667 961 1382.83333333 993 1338.5 c 128
 1025 1294.16666667 1041 1237.66666667 1041 1169 c 0
 1041 1096.33333333 1023.5 1033.66666667 988.5 981 c 128
 953.5 928.333333333 907.333333333 888 850 860 c 1
 696 816 l 1
 843 802 l 1
 883.666666667 790 922.166666667 774.5 958.5 755.5 c 128
 994.833333333 736.5 1026.66666667 713.333333333 1054 686 c 128
 1081.33333333 658.666666667 1102.83333333 626.333333333 1118.5 589 c 128
 1134.16666667 551.666666667 1142 508.666666667 1142 460 c 0
 1142 403.333333333 1134.33333333 352.666666667 1119 308 c 128
 1103.66666667 263.333333333 1083 224 1057 190 c 128
 1031 156 1000.33333333 126.833333333 965 102.5 c 128
 929.666666667 78.1666666667 891.833333333 58.5 851.5 43.5 c 128
 811.166666667 28.5 769.5 17.5 726.5 10.5 c 128
 683.5 3.5 641.333333333 0 600 0 c 2
 190 0 l 1
400 160 m 1
 540 160 l 2
 606 160 664 164.833333333 714 174.5 c 128
 764 184.166666667 806 200.166666667 840 222.5 c 128
 874 244.833333333 899.5 274.5 916.5 311.5 c 128
 933.5 348.5 942 394.666666667 942 450 c 0
 942 500 933.333333333 542.666666667 916 578 c 128
 898.666666667 613.333333333 874.166666667 642.333333333 842.5 665 c 128
 810.833333333 687.666666667 772.666666667 704.166666667 728 714.5 c 128
 683.333333333 724.833333333 634 730 580 730 c 2
 400 730 l 1
 400 160 l 1
EndSplineSet
EndChar

StartChar: C
Encoding: 67 67 34
Width: 1200
VWidth: 2000
Flags: HW
LayerCount: 2
Fore
SplineSet
1106 104 m 1
 1051.33333333 60 991 28.8333333333 925 10.5 c 128
 859 -7.83333333333 786.666666667 -17 708 -17 c 0
 612 -17 525.666666667 3.83333333333 449 45.5 c 128
 372.333333333 87.1666666667 307.333333333 143.666666667 254 215 c 128
 200.666666667 286.333333333 159.833333333 369.666666667 131.5 465 c 128
 103.166666667 560.333333333 89 662 89 770 c 0
 89 870.666666667 101.833333333 966.166666667 127.5 1056.5 c 128
 153.166666667 1146.83333333 192.333333333 1226.16666667 245 1294.5 c 128
 297.666666667 1362.83333333 364.333333333 1417 445 1457 c 128
 525.666666667 1497 621 1517 731 1517 c 0
 807.666666667 1517 880.166666667 1504.83333333 948.5 1480.5 c 128
 1016.83333333 1456.16666667 1075 1421 1123 1375 c 1
 1033 1268 l 1
 1001 1289.33333333 960.833333333 1308 912.5 1324 c 128
 864.166666667 1340 809 1348 747 1348 c 0
 665.666666667 1348 596.666666667 1332.66666667 540 1302 c 128
 483.333333333 1271.33333333 437 1229.83333333 401 1177.5 c 128
 365 1125.16666667 338.833333333 1064.16666667 322.5 994.5 c 128
 306.166666667 924.833333333 298 851 298 773 c 0
 298 727 301.666666667 679.833333333 309 631.5 c 128
 316.333333333 583.166666667 327.5 536 342.5 490 c 128
 357.5 444 376.833333333 400.666666667 400.5 360 c 128
 424.166666667 319.333333333 452.166666667 283.666666667 484.5 253 c 128
 516.833333333 222.333333333 553.666666667 198 595 180 c 128
 636.333333333 162 682.666666667 153 734 153 c 0
 764 153 791.333333333 154.333333333 816 157 c 128
 840.666666667 159.666666667 864.5 164 887.5 170 c 128
 910.5 176 933.333333333 183.833333333 956 193.5 c 128
 978.666666667 203.166666667 1003 215.333333333 1029 230 c 1
 1106 104 l 1
EndSplineSet
EndChar

StartChar: D
Encoding: 68 68 35
Width: 1300
VWidth: 2000
Flags: HW
LayerCount: 2
Fore
SplineSet
170 1500 m 1
 190.666666667 1502 215.333333333 1503.66666667 244 1505 c 128
 272.666666667 1506.33333333 302.166666667 1507.5 332.5 1508.5 c 128
 362.833333333 1509.5 392.833333333 1510.16666667 422.5 1510.5 c 128
 452.166666667 1510.83333333 478 1511 500 1511 c 0
 606 1511 704.166666667 1498 794.5 1472 c 128
 884.833333333 1446 963 1404.66666667 1029 1348 c 128
 1095 1291.33333333 1146.66666667 1218.66666667 1184 1130 c 128
 1221.33333333 1041.33333333 1240 934.666666667 1240 810 c 0
 1240 712.666666667 1230.66666667 625.166666667 1212 547.5 c 128
 1193.33333333 469.833333333 1167.5 401 1134.5 341 c 128
 1101.5 281 1061.83333333 229.5 1015.5 186.5 c 128
 969.166666667 143.5 918.166666667 108.166666667 862.5 80.5 c 128
 806.833333333 52.8333333333 747.666666667 32.5 685 19.5 c 128
 622.333333333 6.5 557.666666667 0 491 0 c 2
 200 0 l 1
 200 1290 l 1
 170 1500 l 1
410 1150 m 1
 410 160 l 1
 430 160 l 2
 526.666666667 160 608.666666667 170 676 190 c 128
 743.333333333 210 799.166666667 236.5 843.5 269.5 c 128
 887.833333333 302.5 922.5 340.5 947.5 383.5 c 128
 972.5 426.5 991.166666667 471 1003.5 517 c 128
 1015.83333333 563 1023.33333333 608.666666667 1026 654 c 128
 1028.66666667 699.333333333 1030 741.333333333 1030 780 c 0
 1030 864.666666667 1022.66666667 942.5 1008 1013.5 c 128
 993.333333333 1084.5 966.333333333 1145.5 927 1196.5 c 128
 887.666666667 1247.5 832.833333333 1287.16666667 762.5 1315.5 c 128
 692.166666667 1343.83333333 601.666666667 1358 491 1358 c 0
 480.333333333 1358 469 1357.66666667 457 1357 c 128
 445 1356.33333333 433.666666667 1355.33333333 423 1354 c 0
 411 1352.66666667 398.333333333 1351.33333333 385 1350 c 1
 410 1150 l 1
EndSplineSet
EndChar

StartChar: E
Encoding: 69 69 36
Width: 1200
VWidth: 2000
Flags: HW
LayerCount: 2
Fore
SplineSet
1045 160 m 1
 1025 0 l 1
 175 0 l 1
 190 200 l 1
 190 1290 l 1
 160 1500 l 1
 1010 1500 l 1
 1010 1340 l 1
 380 1340 l 1
 400 1150 l 1
 400 885 l 1
 940 885 l 1
 940 740 l 1
 400 740 l 1
 400 340 l 1
 390 160 l 1
 1045 160 l 1
EndSplineSet
EndChar

StartChar: F
Encoding: 70 70 37
Width: 1100
VWidth: 2000
Flags: HW
LayerCount: 2
Fore
SplineSet
400 0 m 1
 190 0 l 1
 190 1290 l 1
 160 1500 l 1
 1045 1500 l 1
 1025 1340 l 1
 380 1340 l 1
 400 1150 l 1
 400 885 l 1
 940 885 l 1
 940 740 l 1
 400 740 l 1
 400 0 l 1
EndSplineSet
EndChar

StartChar: G
Encoding: 71 71 38
Width: 1300
VWidth: 2000
Flags: HW
LayerCount: 2
Fore
SplineSet
1200 197 m 1
 1172.66666667 167 1142 138.833333333 1108 112.5 c 128
 1074 86.1666666667 1036.66666667 63.5 996 44.5 c 128
 955.333333333 25.5 911 10.5 863 -0.5 c 128
 815 -11.5 763.333333333 -17 708 -17 c 0
 612 -17 525.666666667 3.83333333333 449 45.5 c 128
 372.333333333 87.1666666667 307.166666667 143.666666667 253.5 215 c 128
 199.833333333 286.333333333 158.833333333 369.666666667 130.5 465 c 128
 102.166666667 560.333333333 88 662 88 770 c 0
 88 870.666666667 100.833333333 966.166666667 126.5 1056.5 c 128
 152.166666667 1146.83333333 191.5 1226.16666667 244.5 1294.5 c 128
 297.5 1362.83333333 364.333333333 1417 445 1457 c 128
 525.666666667 1497 621 1517 731 1517 c 0
 807.666666667 1517 880.166666667 1504.83333333 948.5 1480.5 c 128
 1016.83333333 1456.16666667 1075 1421 1123 1375 c 1
 1033 1268 l 1
 1001 1289.33333333 960.833333333 1308 912.5 1324 c 128
 864.166666667 1340 809 1348 747 1348 c 0
 665.666666667 1348 596.666666667 1332.66666667 540 1302 c 128
 483.333333333 1271.33333333 437 1229.83333333 401 1177.5 c 128
 365 1125.16666667 338.833333333 1064.16666667 322.5 994.5 c 128
 306.166666667 924.833333333 298 851 298 773 c 0
 298 727 301.666666667 679.833333333 309 631.5 c 128
 316.333333333 583.166666667 327.5 536 342.5 490 c 128
 357.5 444 376.833333333 400.666666667 400.5 360 c 128
 424.166666667 319.333333333 452.166666667 283.666666667 484.5 253 c 128
 516.833333333 222.333333333 553.666666667 198 595 180 c 128
 636.333333333 162 682.666666667 153 734 153 c 0
 764 153 793 156.166666667 821 162.5 c 128
 849 168.833333333 875 177 899 187 c 128
 923 197 944.5 208.166666667 963.5 220.5 c 128
 982.5 232.833333333 998 245.333333333 1010 258 c 1
 1010 645 l 1
 700 665 l 1
 700 805 l 1
 1200 805 l 1
 1200 197 l 1
EndSplineSet
EndChar

StartChar: H
Encoding: 72 72 39
Width: 1400
VWidth: 2000
Flags: HW
LayerCount: 2
Fore
SplineSet
1015 0 m 1
 1015 725 l 1
 385 725 l 1
 385 0 l 1
 180 0 l 1
 180 1290 l 1
 151 1500 l 1
 385 1520 l 1
 385 885 l 1
 1015 885 l 1
 1015 1502 l 1
 1220 1520 l 1
 1220 0 l 1
 1015 0 l 1
EndSplineSet
EndChar

StartChar: I
Encoding: 73 73 40
Width: 600
VWidth: 2000
Flags: HW
LayerCount: 2
Fore
SplineSet
190 0 m 1
 190 1290 l 1
 160 1500 l 1
 400 1520 l 1
 400 0 l 1
 190 0 l 1
EndSplineSet
EndChar

StartChar: J
Encoding: 74 74 41
Width: 900
VWidth: 2000
Flags: HW
LayerCount: 2
Fore
SplineSet
270 1497 m 1
 700 1520 l 1
 700 430 l 2
 700 302 665.5 196.333333333 596.5 113 c 128
 527.5 29.6666666667 427.666666667 -13.6666666667 297 -17 c 1
 185 -17 86 27 0 115 c 1
 92 233 l 1
 98.6666666667 226.333333333 108.5 218.5 121.5 209.5 c 128
 134.5 200.5 149.666666667 192 167 184 c 128
 184.333333333 176 203.166666667 169.333333333 223.5 164 c 128
 243.833333333 158.666666667 265 156 287 156 c 0
 356.333333333 156 407.5 182 440.5 234 c 128
 473.5 286 490 364.666666667 490 470 c 2
 490 1148 l 1
 510 1338 l 1
 290 1325 l 1
 270 1497 l 1
EndSplineSet
EndChar

StartChar: K
Encoding: 75 75 42
Width: 1200
VWidth: 2000
Flags: HW
LayerCount: 2
Fore
SplineSet
190 0 m 1
 190 1290 l 1
 160 1500 l 1
 400 1520 l 1
 400 856 l 1
 941 1500 l 1
 1163 1500 l 1
 632 865 l 1
 463 802 l 1
 637 744 l 1
 1190 0 l 1
 953 0 l 1
 400 746 l 1
 400 0 l 1
 190 0 l 1
EndSplineSet
EndChar

StartChar: L
Encoding: 76 76 43
Width: 1100
VWidth: 2000
Flags: HW
LayerCount: 2
Fore
SplineSet
390 160 m 1
 1040 160 l 1
 1020 0 l 1
 170 0 l 1
 190 200 l 1
 190 1290 l 1
 160 1500 l 1
 400 1520 l 1
 400 340 l 1
 390 160 l 1
EndSplineSet
EndChar

StartChar: M
Encoding: 77 77 44
Width: 1800
VWidth: 2000
Flags: HW
LayerCount: 2
Fore
SplineSet
1400 0 m 1
 1400 1000 l 1
 1444 1320 l 1
 1439 1321 l 1
 1338 1020 l 1
 923 130 l 1
 854 130 l 1
 485 920 l 1
 353 1321 l 1
 347 1320 l 1
 400 901 l 1
 400 0 l 1
 200 0 l 1
 200 1290 l 1
 172 1500 l 1
 406 1520 l 1
 845 580 l 1
 900 320 l 1
 955 580 l 1
 1384 1500 l 1
 1610 1520 l 1
 1610 0 l 1
 1400 0 l 1
EndSplineSet
EndChar

StartChar: N
Encoding: 78 78 45
Width: 1500
VWidth: 2000
Flags: HW
LayerCount: 2
Fore
SplineSet
1100 0 m 1
 485 1028 l 1
 368 1317 l 1
 362 1316 l 1
 400 1000 l 1
 400 0 l 1
 200 0 l 1
 200 1290 l 1
 170 1500 l 1
 406 1520 l 1
 1022 487 l 1
 1142 173 l 1
 1148 174 l 1
 1100 510 l 1
 1100 1500 l 1
 1295 1520 l 1
 1295 0 l 1
 1100 0 l 1
EndSplineSet
EndChar

StartChar: O
Encoding: 79 79 46
Width: 1600
VWidth: 2000
Flags: HW
LayerCount: 2
Fore
SplineSet
800 -17 m 0
 694.666666667 -17 600.333333333 2.33333333333 517 41 c 128
 433.666666667 79.6666666667 362.833333333 133.166666667 304.5 201.5 c 128
 246.166666667 269.833333333 201.5 350.833333333 170.5 444.5 c 128
 139.5 538.166666667 124 640 124 750 c 256
 124 860 139 961.833333333 169 1055.5 c 128
 199 1149.16666667 242.833333333 1230.16666667 300.5 1298.5 c 128
 358.166666667 1366.83333333 429 1420.33333333 513 1459 c 128
 597 1497.66666667 692.666666667 1517 800 1517 c 0
 904.666666667 1517 998.833333333 1497.66666667 1082.5 1459 c 128
 1166.16666667 1420.33333333 1237.16666667 1366.83333333 1295.5 1298.5 c 128
 1353.83333333 1230.16666667 1398.5 1149.16666667 1429.5 1055.5 c 128
 1460.5 961.833333333 1476 860 1476 750 c 256
 1476 640 1461 538.166666667 1431 444.5 c 128
 1401 350.833333333 1357.16666667 269.833333333 1299.5 201.5 c 128
 1241.83333333 133.166666667 1171 79.6666666667 1087 41 c 128
 1003 2.33333333333 907.333333333 -17 800 -17 c 0
1268 719 m 0
 1268 772.333333333 1264.33333333 824.833333333 1257 876.5 c 128
 1249.66666667 928.166666667 1238 977.166666667 1222 1023.5 c 128
 1206 1069.83333333 1185.33333333 1112.83333333 1160 1152.5 c 128
 1134.66666667 1192.16666667 1104.5 1226.33333333 1069.5 1255 c 128
 1034.5 1283.66666667 994.166666667 1306.16666667 948.5 1322.5 c 128
 902.833333333 1338.83333333 851.333333333 1347 794 1347 c 0
 712 1347 641.833333333 1331.16666667 583.5 1299.5 c 128
 525.166666667 1267.83333333 477.333333333 1225.66666667 440 1173 c 128
 402.666666667 1120.33333333 375.333333333 1060.33333333 358 993 c 128
 340.666666667 925.666666667 332 856.333333333 332 785 c 0
 332 731 335.833333333 678 343.5 626 c 128
 351.166666667 574 363 524.5 379 477.5 c 128
 395 430.5 415.5 387.166666667 440.5 347.5 c 128
 465.5 307.833333333 495.5 273.666666667 530.5 245 c 128
 565.5 216.333333333 605.833333333 193.833333333 651.5 177.5 c 128
 697.166666667 161.166666667 748.666666667 153 806 153 c 0
 860 153 909 160.5 953 175.5 c 128
 997 190.5 1036.16666667 211 1070.5 237 c 128
 1104.83333333 263 1134.33333333 294 1159 330 c 128
 1183.66666667 366 1204.16666667 404.833333333 1220.5 446.5 c 128
 1236.83333333 488.166666667 1248.83333333 532.166666667 1256.5 578.5 c 128
 1264.16666667 624.833333333 1268 671.666666667 1268 719 c 0
EndSplineSet
EndChar

StartChar: P
Encoding: 80 80 47
Width: 1200
VWidth: 2000
Flags: HW
LayerCount: 2
Fore
SplineSet
400 0 m 1
 190 0 l 1
 190 1290 l 1
 155 1490 l 1
 175 1493.33333333 199.5 1496.33333333 228.5 1499 c 128
 257.5 1501.66666667 288.333333333 1504 321 1506 c 128
 353.666666667 1508 386.333333333 1509.5 419 1510.5 c 128
 451.666666667 1511.5 481 1512 507 1512 c 0
 583.666666667 1512 657.166666667 1505.16666667 727.5 1491.5 c 128
 797.833333333 1477.83333333 860 1455 914 1423 c 128
 968 1391 1011 1349 1043 1297 c 128
 1075 1245 1091 1180.66666667 1091 1104 c 0
 1091 1010.66666667 1074.33333333 933.166666667 1041 871.5 c 128
 1007.66666667 809.833333333 960.666666667 760.666666667 900 724 c 128
 839.333333333 687.333333333 766.5 661.5 681.5 646.5 c 128
 596.5 631.5 502.666666667 624 400 624 c 1
 400 0 l 1
400 1147 m 1
 400 765 l 1
 480 765 551 769.666666667 613 779 c 128
 675 788.333333333 727.333333333 805.166666667 770 829.5 c 128
 812.666666667 853.833333333 845 887.333333333 867 930 c 128
 889 972.666666667 900 1027.66666667 900 1095 c 0
 900 1145 889.5 1187.66666667 868.5 1223 c 128
 847.5 1258.33333333 820.333333333 1287.33333333 787 1310 c 128
 753.666666667 1332.66666667 716.333333333 1349.16666667 675 1359.5 c 128
 633.666666667 1369.83333333 592.666666667 1375 552 1375 c 0
 540.666666667 1375 527.166666667 1374.5 511.5 1373.5 c 128
 495.833333333 1372.5 480 1371.33333333 464 1370 c 128
 448 1368.66666667 432.5 1367 417.5 1365 c 128
 402.5 1363 390 1361 380 1359 c 1
 400 1147 l 1
EndSplineSet
EndChar

StartChar: Q
Encoding: 81 81 48
Width: 1600
VWidth: 2000
Flags: HW
LayerCount: 2
Fore
SplineSet
1404 -145 m 1
 1366.66666667 -145 1329.5 -142.5 1292.5 -137.5 c 128
 1255.5 -132.5 1219.33333333 -121.333333333 1184 -104 c 128
 1148.66666667 -86.6666666667 1114.33333333 -61.8333333333 1081 -29.5 c 128
 1047.66666667 2.83333333333 1016.33333333 46.6666666667 987 102 c 2
 977 120 l 2
 973.666666667 126 970.333333333 131.666666667 967 137 c 1
 957 -1 l 1
 932.333333333 -6.33333333333 907 -10.3333333333 881 -13 c 128
 855 -15.6666666667 828 -17 800 -17 c 0
 694.666666667 -17 600.333333333 2.33333333333 517 41 c 128
 433.666666667 79.6666666667 362.833333333 133.166666667 304.5 201.5 c 128
 246.166666667 269.833333333 201.5 350.833333333 170.5 444.5 c 128
 139.5 538.166666667 124 640 124 750 c 256
 124 860 139 961.833333333 169 1055.5 c 128
 199 1149.16666667 242.833333333 1230.16666667 300.5 1298.5 c 128
 358.166666667 1366.83333333 429 1420.33333333 513 1459 c 128
 597 1497.66666667 692.666666667 1517 800 1517 c 0
 904.666666667 1517 998.833333333 1497.66666667 1082.5 1459 c 128
 1166.16666667 1420.33333333 1237.16666667 1366.83333333 1295.5 1298.5 c 128
 1353.83333333 1230.16666667 1398.5 1149.16666667 1429.5 1055.5 c 128
 1460.5 961.833333333 1476 860 1476 750 c 0
 1476 680 1469.83333333 613.166666667 1457.5 549.5 c 128
 1445.16666667 485.833333333 1427 426.5 1403 371.5 c 128
 1379 316.5 1349.5 266.333333333 1314.5 221 c 128
 1279.5 175.666666667 1239.33333333 136.333333333 1194 103 c 1
 1213.33333333 78.3333333333 1232.16666667 59.1666666667 1250.5 45.5 c 128
 1268.83333333 31.8333333333 1288.5 21.5 1309.5 14.5 c 128
 1330.5 7.5 1353.16666667 3.16666666667 1377.5 1.5 c 128
 1401.83333333 -0.166666666667 1429.66666667 -1 1461 -1 c 1
 1404 -145 l 1
1268 719 m 0
 1268 772.333333333 1264.33333333 824.833333333 1257 876.5 c 128
 1249.66666667 928.166666667 1238 977.166666667 1222 1023.5 c 128
 1206 1069.83333333 1185.33333333 1112.83333333 1160 1152.5 c 128
 1134.66666667 1192.16666667 1104.5 1226.33333333 1069.5 1255 c 128
 1034.5 1283.66666667 994.166666667 1306.16666667 948.5 1322.5 c 128
 902.833333333 1338.83333333 851.333333333 1347 794 1347 c 0
 712 1347 641.833333333 1331.16666667 583.5 1299.5 c 128
 525.166666667 1267.83333333 477.333333333 1225.66666667 440 1173 c 128
 402.666666667 1120.33333333 375.333333333 1060.33333333 358 993 c 128
 340.666666667 925.666666667 332 856.333333333 332 785 c 0
 332 731 335.833333333 678 343.5 626 c 128
 351.166666667 574 363 524.5 379 477.5 c 128
 395 430.5 415.5 387.166666667 440.5 347.5 c 128
 465.5 307.833333333 495.5 273.666666667 530.5 245 c 128
 565.5 216.333333333 605.833333333 193.833333333 651.5 177.5 c 128
 697.166666667 161.166666667 748.666666667 153 806 153 c 0
 831.333333333 153 855.666666667 154.666666667 879 158 c 128
 902.333333333 161.333333333 924.333333333 166 945 172 c 1
 925.666666667 202 906.833333333 225.666666667 888.5 243 c 128
 870.166666667 260.333333333 851 273.333333333 831 282 c 128
 811 290.666666667 789 296 765 298 c 128
 741 300 713.333333333 301 682 301 c 1
 739 445 l 1
 775.666666667 445 811.333333333 441 846 433 c 128
 880.666666667 425 914.833333333 411 948.5 391 c 128
 982.166666667 371 1015.33333333 343.666666667 1048 309 c 128
 1080.66666667 274.333333333 1113 230.333333333 1145 177 c 1
 1145 314 l 1
 1187.66666667 368 1218.83333333 430.333333333 1238.5 501 c 128
 1258.16666667 571.666666667 1268 644.333333333 1268 719 c 0
EndSplineSet
EndChar

StartChar: R
Encoding: 82 82 49
Width: 1300
VWidth: 2000
Flags: HW
LayerCount: 2
Fore
SplineSet
400 614 m 1
 400 0 l 1
 190 0 l 1
 190 1290 l 1
 155 1490 l 1
 177 1492.66666667 203.5 1495.33333333 234.5 1498 c 128
 265.5 1500.66666667 297.833333333 1503 331.5 1505 c 128
 365.166666667 1507 399 1508.66666667 433 1510 c 128
 467 1511.33333333 498.333333333 1512 527 1512 c 0
 611 1512 687.666666667 1503.16666667 757 1485.5 c 128
 826.333333333 1467.83333333 885.666666667 1441.66666667 935 1407 c 128
 984.333333333 1372.33333333 1022.66666667 1329.16666667 1050 1277.5 c 128
 1077.33333333 1225.83333333 1091 1166.33333333 1091 1099 c 0
 1091 1029 1080.16666667 967.333333333 1058.5 914 c 128
 1036.83333333 860.666666667 1006.33333333 815.166666667 967 777.5 c 128
 927.666666667 739.833333333 880.833333333 709.166666667 826.5 685.5 c 128
 772.166666667 661.833333333 712.666666667 644.333333333 648 633 c 1
 790 593 l 1
 1233 0 l 1
 1010 0 l 1
 567 595 l 2
 559.666666667 604.333333333 551.333333333 609.833333333 542 611.5 c 128
 532.666666667 613.166666667 525.333333333 614 520 614 c 2
 400 614 l 1
400 1147 m 1
 400 765 l 1
 548 765 l 2
 608.666666667 765 661.333333333 773.5 706 790.5 c 128
 750.666666667 807.5 787.666666667 830.5 817 859.5 c 128
 846.333333333 888.5 868.333333333 922.166666667 883 960.5 c 128
 897.666666667 998.833333333 905 1039.66666667 905 1083 c 0
 905 1139.66666667 894.333333333 1186.83333333 873 1224.5 c 128
 851.666666667 1262.16666667 824 1292.16666667 790 1314.5 c 128
 756 1336.83333333 718 1352.5 676 1361.5 c 128
 634 1370.5 592.666666667 1375 552 1375 c 0
 538 1375 523.333333333 1374.83333333 508 1374.5 c 128
 492.666666667 1374.16666667 477.333333333 1373.66666667 462 1373 c 128
 446.666666667 1372.33333333 431.833333333 1371.16666667 417.5 1369.5 c 128
 403.166666667 1367.83333333 390.666666667 1366 380 1364 c 1
 400 1147 l 1
EndSplineSet
EndChar

StartChar: S
Encoding: 83 83 50
Width: 1100
VWidth: 2000
Flags: HW
LayerCount: 2
Fore
SplineSet
870 1274 m 1
 824.666666667 1300.66666667 781.166666667 1320.33333333 739.5 1333 c 128
 697.833333333 1345.66666667 651.333333333 1352 600 1352 c 0
 564 1352 528.833333333 1348.33333333 494.5 1341 c 128
 460.166666667 1333.66666667 429.833333333 1321.83333333 403.5 1305.5 c 128
 377.166666667 1289.16666667 355.833333333 1267.83333333 339.5 1241.5 c 128
 323.166666667 1215.16666667 315 1183 315 1145 c 0
 315 1107.66666667 325 1075.33333333 345 1048 c 128
 365 1020.66666667 391.166666667 996.166666667 423.5 974.5 c 128
 455.833333333 952.833333333 492.833333333 932.833333333 534.5 914.5 c 128
 576.166666667 896.166666667 618.666666667 876.833333333 662 856.5 c 128
 705.333333333 836.166666667 747.833333333 813.833333333 789.5 789.5 c 128
 831.166666667 765.166666667 868.166666667 736.5 900.5 703.5 c 128
 932.833333333 670.5 959 632 979 588 c 128
 999 544 1009 492 1009 432 c 0
 1009 382.666666667 1002.33333333 337.166666667 989 295.5 c 128
 975.666666667 253.833333333 957.166666667 216.333333333 933.5 183 c 128
 909.833333333 149.666666667 881.666666667 120.5 849 95.5 c 128
 816.333333333 70.5 780.666666667 49.6666666667 742 33 c 128
 703.333333333 16.3333333333 662.5 3.83333333333 619.5 -4.5 c 128
 576.5 -12.8333333333 532.666666667 -17 488 -17 c 0
 332.666666667 -14.3333333333 197.333333333 22.6666666667 82 94 c 1
 173 244 l 1
 186.333333333 235.333333333 203.833333333 225.5 225.5 214.5 c 128
 247.166666667 203.5 271.333333333 193 298 183 c 128
 324.666666667 173 353 164.666666667 383 158 c 128
 413 151.333333333 443.333333333 148 474 148 c 0
 515.333333333 148 555.833333333 153.166666667 595.5 163.5 c 128
 635.166666667 173.833333333 670.5 189.833333333 701.5 211.5 c 128
 732.5 233.166666667 757.5 260.666666667 776.5 294 c 128
 795.5 327.333333333 805 367 805 413 c 0
 805 456.333333333 795 494.166666667 775 526.5 c 128
 755 558.833333333 728.833333333 587.833333333 696.5 613.5 c 128
 664.166666667 639.166666667 627.166666667 662.333333333 585.5 683 c 128
 543.833333333 703.666666667 501.333333333 724.333333333 458 745 c 128
 414.666666667 765.666666667 372.166666667 787.333333333 330.5 810 c 128
 288.833333333 832.666666667 251.833333333 858.333333333 219.5 887 c 128
 187.166666667 915.666666667 161 948.5 141 985.5 c 128
 121 1022.5 111 1066 111 1116 c 0
 111 1180.66666667 124.333333333 1237.83333333 151 1287.5 c 128
 177.666666667 1337.16666667 212.833333333 1379 256.5 1413 c 128
 300.166666667 1447 349.666666667 1472.83333333 405 1490.5 c 128
 460.333333333 1508.16666667 516.666666667 1517 574 1517 c 0
 716 1517 847 1477 967 1397 c 1
 870 1274 l 1
EndSplineSet
EndChar

StartChar: T
Encoding: 84 84 51
Width: 1200
VWidth: 2000
Flags: HW
LayerCount: 2
Fore
SplineSet
495 0 m 1
 495 1340 l 1
 80 1340 l 1
 80 1500 l 1
 1115 1500 l 1
 1115 1340 l 1
 705 1340 l 1
 705 0 l 1
 495 0 l 1
EndSplineSet
EndChar

StartChar: U
Encoding: 85 85 52
Width: 1400
VWidth: 2000
Flags: HW
LayerCount: 2
Fore
SplineSet
1220 1500 m 1
 1220 523 l 2
 1220 432.333333333 1206.33333333 353.166666667 1179 285.5 c 128
 1151.66666667 217.833333333 1114.16666667 161.666666667 1066.5 117 c 128
 1018.83333333 72.3333333333 962.333333333 38.8333333333 897 16.5 c 128
 831.666666667 -5.83333333333 761 -17 685 -17 c 0
 603.666666667 -17 531.666666667 -2.83333333333 469 25.5 c 128
 406.333333333 53.8333333333 353.666666667 93.8333333333 311 145.5 c 128
 268.333333333 197.166666667 235.833333333 259.333333333 213.5 332 c 128
 191.166666667 404.666666667 180 485 180 573 c 2
 180 1290 l 1
 150 1500 l 1
 385 1520 l 1
 385 554 l 2
 385 490.666666667 393.333333333 434.166666667 410 384.5 c 128
 426.666666667 334.833333333 449.166666667 292.833333333 477.5 258.5 c 128
 505.833333333 224.166666667 538.666666667 198 576 180 c 128
 613.333333333 162 653 153 695 153 c 0
 743.666666667 153 787.833333333 160.333333333 827.5 175 c 128
 867.166666667 189.666666667 900.833333333 211.666666667 928.5 241 c 128
 956.166666667 270.333333333 977.5 306.833333333 992.5 350.5 c 128
 1007.5 394.166666667 1015 445.333333333 1015 504 c 2
 1015 1500 l 1
 1220 1500 l 1
EndSplineSet
EndChar

StartChar: V
Encoding: 86 86 53
Width: 1300
VWidth: 2000
Flags: HW
LayerCount: 2
Fore
SplineSet
585 500 m 1
 673 140 l 1
 721 454 l 1
 1051 1500 l 1
 1240 1500 l 1
 821 180 l 1
 795 -20 l 1
 549 0 l 1
 67 1500 l 1
 262 1520 l 1
 585 500 l 1
EndSplineSet
EndChar

StartChar: W
Encoding: 87 87 54
Width: 1900
VWidth: 2000
Flags: HW
LayerCount: 2
Fore
SplineSet
872 1500 m 1
 1029 1500 l 1
 1288 460 l 1
 1352 100 l 1
 1356 100 l 1
 1379 460 l 1
 1639 1500 l 1
 1814 1500 l 1
 1440 0 l 1
 1208 0 l 1
 987 885 l 1
 958 1243 l 1
 894 885 l 1
 673 0 l 1
 441 0 l 1
 67 1500 l 1
 258 1520 l 1
 522 460 l 1
 586 100 l 1
 590 100 l 1
 612 460 l 1
 872 1500 l 1
EndSplineSet
EndChar

StartChar: X
Encoding: 88 88 55
Width: 1300
VWidth: 2000
Flags: HW
LayerCount: 2
Fore
SplineSet
1014 0 m 1
 701 519 l 1
 624 700 l 1
 576 540 l 1
 251 0 l 1
 53 0 l 1
 533 799 l 1
 110 1500 l 1
 322 1520 l 1
 600 1056 l 1
 680 860 l 1
 715 1020 l 1
 1003 1500 l 1
 1203 1500 l 1
 768 776 l 1
 1234 0 l 1
 1014 0 l 1
EndSplineSet
EndChar

StartChar: Y
Encoding: 89 89 56
Width: 1200
VWidth: 2000
Flags: HW
LayerCount: 2
Fore
SplineSet
660 935 m 1
 948 1500 l 1
 1140 1500 l 1
 705 646 l 1
 705 0 l 1
 495 0 l 1
 495 645 l 1
 59 1500 l 1
 263 1520 l 1
 551 954 l 1
 630 705 l 1
 660 935 l 1
EndSplineSet
EndChar

StartChar: Z
Encoding: 90 90 57
Width: 1200
VWidth: 2000
Flags: HW
LayerCount: 2
Fore
SplineSet
1090 160 m 1
 1110 0 l 1
 81 0 l 1
 61 50 l 1
 716 1200 l 1
 900 1380 l 1
 635 1340 l 1
 150 1340 l 1
 130 1500 l 1
 1076 1500 l 1
 1091 1478 l 1
 430 300 l 1
 252 120 l 1
 517 160 l 1
 1090 160 l 1
EndSplineSet
EndChar

StartChar: bracketleft
Encoding: 91 91 58
Width: 900
VWidth: 2000
Flags: HW
LayerCount: 2
Fore
SplineSet
122 1320 m 1
 100 1520 l 1
 672 1520 l 1
 672 1370 l 1
 300 1370 l 1
 320 1170 l 1
 320 -70 l 1
 300 -270 l 1
 672 -270 l 1
 672 -420 l 1
 100 -420 l 1
 122 -220 l 1
 122 1320 l 1
EndSplineSet
EndChar

StartChar: backslash
Encoding: 92 92 59
Width: 1100
VWidth: 2000
Flags: HW
LayerCount: 2
Fore
SplineSet
75 1600 m 1
 275 1600 l 1
 985 -100 l 1
 775 -100 l 1
 75 1600 l 1
EndSplineSet
EndChar

StartChar: bracketright
Encoding: 93 93 60
Width: 1000
VWidth: 2000
Flags: HW
LayerCount: 2
Fore
SplineSet
678 -220 m 1
 700 -420 l 1
 128 -420 l 1
 128 -270 l 1
 500 -270 l 1
 480 -70 l 1
 480 1170 l 1
 500 1370 l 1
 128 1370 l 1
 128 1520 l 1
 700 1520 l 1
 678 1320 l 1
 678 -220 l 1
EndSplineSet
EndChar

StartChar: asciicircum
Encoding: 94 94 61
Width: 1500
VWidth: 2000
Flags: HW
LayerCount: 2
Fore
SplineSet
1373 912 m 1
 1172 912 l 1
 794 1239 l 1
 749 1350 l 1
 705 1241 l 1
 338 914 l 1
 122 914 l 1
 677 1500 l 1
 806 1517 l 1
 1373 912 l 1
EndSplineSet
EndChar

StartChar: underscore
Encoding: 95 95 62
Width: 1100
VWidth: 2000
Flags: HW
LayerCount: 2
Fore
SplineSet
0 -300 m 1
 1100 -300 l 1
 1100 -455 l 1
 0 -455 l 1
 0 -300 l 1
EndSplineSet
EndChar

StartChar: grave
Encoding: 96 96 63
Width: 1100
VWidth: 2000
Flags: HW
LayerCount: 2
Fore
SplineSet
660 1200 m 1
 510 1200 l 1
 285 1500 l 1
 489 1520 l 1
 660 1200 l 1
EndSplineSet
EndChar

StartChar: a
Encoding: 97 97 64
Width: 1050
VWidth: 2000
Flags: HW
LayerCount: 2
Fore
SplineSet
920 0 m 1
 710 0 l 1
 710 162 l 1
 616 50 l 1
 604.666666667 41.3333333333 591.666666667 33 577 25 c 128
 562.333333333 17 547.5 9.83333333333 532.5 3.5 c 128
 517.5 -2.83333333333 502.5 -7.83333333333 487.5 -11.5 c 128
 472.5 -15.1666666667 458.666666667 -17 446 -17 c 0
 396 -17 348.166666667 -9.16666666667 302.5 6.5 c 128
 256.833333333 22.1666666667 216.833333333 45.1666666667 182.5 75.5 c 128
 148.166666667 105.833333333 120.833333333 143.5 100.5 188.5 c 128
 80.1666666667 233.5 70 285.333333333 70 344 c 0
 70 406 82.5 459.833333333 107.5 505.5 c 128
 132.5 551.166666667 164.5 589.166666667 203.5 619.5 c 128
 242.5 649.833333333 286 672.5 334 687.5 c 128
 382 702.5 429 710 475 710 c 0
 513 710 546.5 708 575.5 704 c 128
 604.5 700 629 695.333333333 649 690 c 0
 672.333333333 684 692.666666667 677.333333333 710 670 c 1
 710 705 l 2
 710 744.333333333 707.666666667 779.666666667 703 811 c 128
 698.333333333 842.333333333 688.833333333 868.833333333 674.5 890.5 c 128
 660.166666667 912.166666667 639.5 928.666666667 612.5 940 c 128
 585.5 951.333333333 549.666666667 957 505 957 c 0
 469 957 434.333333333 954.5 401 949.5 c 128
 367.666666667 944.5 338 939 312 933 c 0
 281.333333333 925.666666667 253 918 227 910 c 1
 155 1044 l 1
 184.333333333 1057.33333333 217.666666667 1069.33333333 255 1080 c 0
 287 1089.33333333 325 1097.83333333 369 1105.5 c 128
 413 1113.16666667 461.666666667 1117 515 1117 c 0
 591.666666667 1117 655 1106.66666667 705 1086 c 128
 755 1065.33333333 794.333333333 1036.33333333 823 999 c 128
 851.666666667 961.666666667 871.666666667 916.833333333 883 864.5 c 128
 894.333333333 812.166666667 900 754 900 690 c 2
 900 180 l 1
 920 0 l 1
710 533 m 1
 691.333333333 535.666666667 671.333333333 538.333333333 650 541 c 0
 632 543 611.333333333 545 588 547 c 128
 564.666666667 549 540.333333333 550 515 550 c 0
 477.666666667 550 443.5 546.333333333 412.5 539 c 128
 381.5 531.666666667 354.666666667 519.833333333 332 503.5 c 128
 309.333333333 487.166666667 291.666666667 466 279 440 c 128
 266.333333333 414 260 382.333333333 260 345 c 0
 260 315 265 287.666666667 275 263 c 128
 285 238.333333333 298.666666667 217 316 199 c 128
 333.333333333 181 353.833333333 167.166666667 377.5 157.5 c 128
 401.166666667 147.833333333 426.666666667 143 454 143 c 0
 466.666666667 143 480.166666667 144.833333333 494.5 148.5 c 128
 508.833333333 152.166666667 523.166666667 157 537.5 163 c 128
 551.833333333 169 566.166666667 176 580.5 184 c 128
 594.833333333 192 608.333333333 200 621 208 c 0
 651 227.333333333 680.666666667 249.333333333 710 274 c 1
 710 533 l 1
EndSplineSet
EndChar

StartChar: b
Encoding: 98 98 65
Width: 1200
VWidth: 2000
Flags: HW
LayerCount: 2
Fore
SplineSet
390 171 m 1
 402.666666667 167 417.333333333 163.166666667 434 159.5 c 128
 450.666666667 155.833333333 468.5 152.833333333 487.5 150.5 c 128
 506.5 148.166666667 526 146.333333333 546 145 c 128
 566 143.666666667 585.333333333 143 604 143 c 0
 644.666666667 143 680.5 149.666666667 711.5 163 c 128
 742.5 176.333333333 769.333333333 194.166666667 792 216.5 c 128
 814.666666667 238.833333333 833.5 265.166666667 848.5 295.5 c 128
 863.5 325.833333333 875.666666667 357.833333333 885 391.5 c 128
 894.333333333 425.166666667 900.833333333 460 904.5 496 c 128
 908.166666667 532 910 567 910 601 c 0
 910 667.666666667 903.666666667 723.666666667 891 769 c 128
 878.333333333 814.333333333 861.166666667 851 839.5 879 c 128
 817.833333333 907 792.833333333 927 764.5 939 c 128
 736.166666667 951 706.333333333 957 675 957 c 0
 622.333333333 957 572 946.833333333 524 926.5 c 128
 476 906.166666667 431.333333333 879 390 845 c 1
 390 171 l 1
200 1420 m 1
 180 1600 l 1
 390 1620 l 1
 390 974 l 1
 475 1065 l 1
 509 1081 544.666666667 1093.66666667 582 1103 c 128
 619.333333333 1112.33333333 656.666666667 1117 694 1117 c 0
 749.333333333 1117 801.5 1105.66666667 850.5 1083 c 128
 899.5 1060.33333333 942.5 1026.83333333 979.5 982.5 c 128
 1016.5 938.166666667 1045.83333333 883.666666667 1067.5 819 c 128
 1089.16666667 754.333333333 1100 680 1100 596 c 0
 1100 504 1087.5 420.333333333 1062.5 345 c 128
 1037.5 269.666666667 1002.5 205.166666667 957.5 151.5 c 128
 912.5 97.8333333333 859.166666667 56.3333333333 797.5 27 c 128
 735.833333333 -2.33333333333 668.333333333 -17 595 -17 c 0
 553 -17 511.666666667 -15.5 471 -12.5 c 128
 430.333333333 -9.5 392.333333333 -5.5 357 -0.5 c 128
 321.666666667 4.5 290.333333333 10.1666666667 263 16.5 c 128
 235.666666667 22.8333333333 214.666666667 29 200 35 c 1
 200 1420 l 1
EndSplineSet
EndChar

StartChar: c
Encoding: 99 99 66
Width: 1000
VWidth: 2000
Flags: HW
LayerCount: 2
Fore
SplineSet
807 878 m 1
 781 901.333333333 750.166666667 920.333333333 714.5 935 c 128
 678.833333333 949.666666667 642 957 604 957 c 0
 548 957 500.333333333 946.5 461 925.5 c 128
 421.666666667 904.5 389.833333333 876 365.5 840 c 128
 341.166666667 804 323.333333333 762.166666667 312 714.5 c 128
 300.666666667 666.833333333 295 616.666666667 295 564 c 0
 295 509.333333333 300.166666667 457.166666667 310.5 407.5 c 128
 320.833333333 357.833333333 338.333333333 314 363 276 c 128
 387.666666667 238 420.5 207.833333333 461.5 185.5 c 128
 502.5 163.166666667 553.666666667 152 615 152 c 0
 666.333333333 152 709.833333333 158 745.5 170 c 128
 781.166666667 182 808.666666667 194.666666667 828 208 c 1
 900 67 l 1
 862.666666667 41.6666666667 819.166666667 21.3333333333 769.5 6 c 128
 719.833333333 -9.33333333333 663.666666667 -17 601 -17 c 0
 517.666666667 -17 444.666666667 -0.5 382 32.5 c 128
 319.333333333 65.5 267.166666667 109.5 225.5 164.5 c 128
 183.833333333 219.5 152.5 282.833333333 131.5 354.5 c 128
 110.5 426.166666667 100 500.333333333 100 577 c 0
 100 646.333333333 110.166666667 713.5 130.5 778.5 c 128
 150.833333333 843.5 181.833333333 901 223.5 951 c 128
 265.166666667 1001 317.833333333 1041.16666667 381.5 1071.5 c 128
 445.166666667 1101.83333333 520 1117 606 1117 c 0
 667.333333333 1117 722.166666667 1107.5 770.5 1088.5 c 128
 818.833333333 1069.5 864 1037 906 991 c 1
 807 878 l 1
EndSplineSet
EndChar

StartChar: d
Encoding: 100 100 67
Width: 1200
VWidth: 2000
Flags: HW
LayerCount: 2
Fore
SplineSet
656 940 m 2
 594.666666667 940 541.666666667 928.5 497 905.5 c 128
 452.333333333 882.5 415.333333333 851.333333333 386 812 c 128
 356.666666667 772.666666667 335 726.333333333 321 673 c 128
 307 619.666666667 300 562.666666667 300 502 c 0
 300 442.666666667 307 390.666666667 321 346 c 128
 335 301.333333333 353.166666667 264 375.5 234 c 128
 397.833333333 204 423.333333333 181.5 452 166.5 c 128
 480.666666667 151.5 510 144 540 144 c 0
 571.333333333 144 600.5 149.333333333 627.5 160 c 128
 654.5 170.666666667 679.333333333 184 702 200 c 128
 724.666666667 216 745 233.5 763 252.5 c 128
 781 271.5 796.666666667 289.333333333 810 306 c 1
 810 940 l 1
 656 940 l 2
810 0 m 1
 810 162 l 1
 715 49 l 1
 703 41 690 33 676 25 c 128
 662 17 646.333333333 10 629 4 c 128
 611.666666667 -2 592.5 -7 571.5 -11 c 128
 550.5 -15 527 -17 501 -17 c 0
 446.333333333 -17 395.333333333 -3.5 348 23.5 c 128
 300.666666667 50.5 259.5 88 224.5 136 c 128
 189.5 184 161.833333333 241.166666667 141.5 307.5 c 128
 121.166666667 373.833333333 111 446.666666667 111 526 c 0
 111 606 123.833333333 680.833333333 149.5 750.5 c 128
 175.166666667 820.166666667 211.666666667 881 259 933 c 128
 306.333333333 985 363.5 1025.83333333 430.5 1055.5 c 128
 497.5 1085.16666667 572.333333333 1100 655 1100 c 2
 810 1100 l 1
 810 1620 l 1
 1000 1600 l 1
 1000 180 l 1
 1020 0 l 1
 810 0 l 1
EndSplineSet
EndChar

StartChar: e
Encoding: 101 101 68
Width: 1100
VWidth: 2000
Flags: HW
LayerCount: 2
Fore
SplineSet
966 129 m 1
 945.333333333 107.666666667 922.666666667 88 898 70 c 128
 873.333333333 52 846 36.5 816 23.5 c 128
 786 10.5 752.833333333 0.5 716.5 -6.5 c 128
 680.166666667 -13.5 639.666666667 -17 595 -17 c 0
 506.333333333 -17 430.666666667 -1.33333333333 368 30 c 128
 305.333333333 61.3333333333 254.166666667 103.333333333 214.5 156 c 128
 174.833333333 208.666666667 145.833333333 269 127.5 337 c 128
 109.166666667 405 100 476 100 550 c 0
 100 597.333333333 104.333333333 644.166666667 113 690.5 c 128
 121.666666667 736.833333333 134.666666667 781 152 823 c 128
 169.333333333 865 191 904 217 940 c 128
 243 976 273.333333333 1007 308 1033 c 128
 342.666666667 1059 381.833333333 1079.5 425.5 1094.5 c 128
 469.166666667 1109.5 517.333333333 1117 570 1117 c 0
 642 1117 704.333333333 1105.33333333 757 1082 c 128
 809.666666667 1058.66666667 853.333333333 1026 888 984 c 128
 922.666666667 942 948.333333333 891.666666667 965 833 c 128
 981.666666667 774.333333333 990 709.333333333 990 638 c 0
 990 617.333333333 989.333333333 594.666666667 988 570 c 128
 986.666666667 545.333333333 984.666666667 522 982 500 c 1
 290 500 l 1
 290 450 296.833333333 403.333333333 310.5 360 c 128
 324.166666667 316.666666667 343.333333333 278.833333333 368 246.5 c 128
 392.666666667 214.166666667 422.5 188.833333333 457.5 170.5 c 128
 492.5 152.166666667 531.666666667 143 575 143 c 0
 617.666666667 143 654.833333333 146.166666667 686.5 152.5 c 128
 718.166666667 158.833333333 745.333333333 166.5 768 175.5 c 128
 790.666666667 184.5 809.166666667 193.666666667 823.5 203 c 128
 837.833333333 212.333333333 849 219.666666667 857 225 c 1
 966 129 l 1
800 650 m 1
 800.666666667 657.333333333 801.166666667 664.666666667 801.5 672 c 128
 801.833333333 679.333333333 802 686.666666667 802 694 c 0
 802 732 797.666666667 767 789 799 c 128
 780.333333333 831 767.166666667 858.833333333 749.5 882.5 c 128
 731.833333333 906.166666667 709.333333333 924.666666667 682 938 c 128
 654.666666667 951.333333333 622.333333333 958 585 958 c 0
 540.333333333 958 502.166666667 950.833333333 470.5 936.5 c 128
 438.833333333 922.166666667 412.166666667 903.833333333 390.5 881.5 c 128
 368.833333333 859.166666667 351.5 834.666666667 338.5 808 c 128
 325.5 781.333333333 315.666666667 756 309 732 c 1
 257 623 l 1
 435 650 l 1
 800 650 l 1
EndSplineSet
EndChar

StartChar: f
Encoding: 102 102 69
Width: 800
VWidth: 2000
Flags: HW
LayerCount: 2
Fore
SplineSet
50 1100 m 1
 200 1100 l 1
 200 1255 l 2
 200 1311.66666667 206.166666667 1362.33333333 218.5 1407 c 128
 230.833333333 1451.66666667 250.333333333 1489.5 277 1520.5 c 128
 303.666666667 1551.5 337.833333333 1575.33333333 379.5 1592 c 128
 421.166666667 1608.66666667 471.333333333 1617 530 1617 c 0
 560 1617 587.5 1614.5 612.5 1609.5 c 128
 637.5 1604.5 660.5 1598 681.5 1590 c 128
 702.5 1582 721.833333333 1572.66666667 739.5 1562 c 128
 757.166666667 1551.33333333 773 1540.33333333 787 1529 c 1
 702 1411 l 1
 688 1421 668.666666667 1431.16666667 644 1441.5 c 128
 619.333333333 1451.83333333 592 1457 562 1457 c 0
 504.666666667 1457 460.833333333 1440.83333333 430.5 1408.5 c 128
 400.166666667 1376.16666667 385 1321.66666667 385 1245 c 2
 385 1100 l 1
 675 1100 l 1
 655 940 l 1
 390 940 l 1
 390 0 l 1
 200 0 l 1
 200 940 l 1
 50 940 l 1
 50 1100 l 1
EndSplineSet
EndChar

StartChar: g
Encoding: 103 103 70
Width: 1200
VWidth: 2000
Flags: HW
LayerCount: 2
Fore
SplineSet
810 135 m 1
 723 25 l 2
 717 21 708.5 16.6666666667 697.5 12 c 128
 686.5 7.33333333333 673 2.83333333333 657 -1.5 c 128
 641 -5.83333333333 622.333333333 -9.5 601 -12.5 c 128
 579.666666667 -15.5 556 -17 530 -17 c 0
 469.333333333 -17 412.833333333 -2.16666666667 360.5 27.5 c 128
 308.166666667 57.1666666667 262.666666667 97.5 224 148.5 c 128
 185.333333333 199.5 155 259.166666667 133 327.5 c 128
 111 395.833333333 100 468.333333333 100 545 c 0
 100 623 110 696.666666667 130 766 c 128
 150 835.333333333 180 896 220 948 c 128
 260 1000 309.666666667 1041.16666667 369 1071.5 c 128
 428.333333333 1101.83333333 497.333333333 1117 576 1117 c 0
 600.666666667 1117 624.833333333 1116 648.5 1114 c 128
 672.166666667 1112 694.333333333 1107.33333333 715 1100 c 1
 810 958 l 1
 810 1120 l 1
 1000 1100 l 1
 1000 -46 l 2
 1000 -111.333333333 988.833333333 -172.666666667 966.5 -230 c 128
 944.166666667 -287.333333333 912 -337.166666667 870 -379.5 c 128
 828 -421.833333333 776.833333333 -455.333333333 716.5 -480 c 128
 656.166666667 -504.666666667 588 -517 512 -517 c 0
 459.333333333 -517 413.166666667 -510.333333333 373.5 -497 c 128
 333.833333333 -483.666666667 300 -469 272 -453 c 0
 240 -434.333333333 212.333333333 -412.666666667 189 -388 c 1
 287 -278 l 1
 306.333333333 -292.666666667 328 -306 352 -318 c 0
 372.666666667 -328 396.666666667 -337 424 -345 c 128
 451.333333333 -353 481 -357 513 -357 c 0
 554.333333333 -357 593 -348.5 629 -331.5 c 128
 665 -314.5 696.5 -291.333333333 723.5 -262 c 128
 750.5 -232.666666667 771.666666667 -198.166666667 787 -158.5 c 128
 802.333333333 -118.833333333 810 -76.3333333333 810 -31 c 2
 810 135 l 1
810 834 m 1
 792 856.666666667 771 877 747 895 c 0
 726.333333333 910.333333333 701.333333333 924.5 672 937.5 c 128
 642.666666667 950.5 609 957 571 957 c 0
 531 957 496.333333333 950.666666667 467 938 c 128
 437.666666667 925.333333333 412.5 908.333333333 391.5 887 c 128
 370.5 865.666666667 353.5 840.833333333 340.5 812.5 c 128
 327.5 784.166666667 317.166666667 754.166666667 309.5 722.5 c 128
 301.833333333 690.833333333 296.666666667 658.833333333 294 626.5 c 128
 291.333333333 594.166666667 290 563 290 533 c 0
 290 476.333333333 296.166666667 424.166666667 308.5 376.5 c 128
 320.833333333 328.833333333 338.166666667 287.833333333 360.5 253.5 c 128
 382.833333333 219.166666667 409.833333333 192.333333333 441.5 173 c 128
 473.166666667 153.666666667 508 144 546 144 c 0
 580 144 610.333333333 147.666666667 637 155 c 128
 663.666666667 162.333333333 687.666666667 172.166666667 709 184.5 c 128
 730.333333333 196.833333333 749.166666667 210.833333333 765.5 226.5 c 128
 781.833333333 242.166666667 796.666666667 258.333333333 810 275 c 1
 810 834 l 1
EndSplineSet
EndChar

StartChar: h
Encoding: 104 104 71
Width: 1200
VWidth: 2000
Flags: HW
LayerCount: 2
Fore
SplineSet
390 0 m 1
 200 0 l 1
 200 1400 l 1
 180 1600 l 1
 390 1620 l 1
 390 950 l 1
 479 1065 l 1
 505 1079.66666667 536 1092 572 1102 c 128
 608 1112 647.333333333 1117 690 1117 c 0
 790 1117 866.666666667 1083.66666667 920 1017 c 128
 973.333333333 950.333333333 1000 854.666666667 1000 730 c 2
 1000 0 l 1
 810 0 l 1
 810 709 l 2
 810 753.666666667 806.166666667 791.666666667 798.5 823 c 128
 790.833333333 854.333333333 780 880 766 900 c 128
 752 920 734.666666667 934.5 714 943.5 c 128
 693.333333333 952.5 670 957 644 957 c 256
 618 957 592.666666667 953.833333333 568 947.5 c 128
 543.333333333 941.166666667 520 932.5 498 921.5 c 128
 476 910.5 455.833333333 897.5 437.5 882.5 c 128
 419.166666667 867.5 403.333333333 851 390 833 c 1
 390 0 l 1
EndSplineSet
EndChar

StartChar: i
Encoding: 105 105 72
Width: 600
VWidth: 2000
Flags: HW
LayerCount: 2
Fore
SplineSet
390 0 m 1
 200 0 l 1
 200 1055 l 1
 390 1075 l 1
 390 0 l 1
194 1500 m 1
 396 1500 l 1
 396 1300 l 1
 194 1300 l 1
 194 1500 l 1
EndSplineSet
EndChar

StartChar: j
Encoding: 106 106 73
Width: 600
VWidth: 2000
Flags: HW
LayerCount: 2
Fore
SplineSet
194 1500 m 1
 396 1500 l 1
 396 1300 l 1
 194 1300 l 1
 194 1500 l 1
-22 -345 m 1
 -14.6666666667 -347.666666667 -2.66666666667 -350.333333333 14 -353 c 128
 30.6666666667 -355.666666667 49.3333333333 -357 70 -357 c 0
 94.6666666667 -357 115.333333333 -350.5 132 -337.5 c 128
 148.666666667 -324.5 162 -306.666666667 172 -284 c 128
 182 -261.333333333 189.166666667 -234.833333333 193.5 -204.5 c 128
 197.833333333 -174.166666667 200 -141.666666667 200 -107 c 2
 200 1055 l 1
 390 1075 l 1
 390 -97 l 2
 390 -156.333333333 386.166666667 -211.666666667 378.5 -263 c 128
 370.833333333 -314.333333333 355.666666667 -358.833333333 333 -396.5 c 128
 310.333333333 -434.166666667 278.833333333 -463.666666667 238.5 -485 c 128
 198.166666667 -506.333333333 145.333333333 -517 80 -517 c 0
 39.3333333333 -517 7.5 -513.333333333 -15.5 -506 c 128
 -38.5 -498.666666667 -53.6666666667 -493 -61 -489 c 1
 -22 -345 l 1
EndSplineSet
EndChar

StartChar: k
Encoding: 107 107 74
Width: 1100
VWidth: 2000
Flags: HW
LayerCount: 2
Fore
SplineSet
200 0 m 1
 200 1420 l 1
 180 1600 l 1
 390 1620 l 1
 390 690 l 1
 760 1100 l 1
 989 1100 l 1
 619 690 l 1
 451 627 l 1
 619 567 l 1
 1100 0 l 1
 864 0 l 1
 390 557 l 1
 390 0 l 1
 200 0 l 1
EndSplineSet
EndChar

StartChar: l
Encoding: 108 108 75
Width: 700
VWidth: 2000
Flags: HW
LayerCount: 2
Fore
SplineSet
390 376 m 2
 390 332 392.5 295.166666667 397.5 265.5 c 128
 402.5 235.833333333 409.833333333 211.833333333 419.5 193.5 c 128
 429.166666667 175.166666667 441.166666667 162.166666667 455.5 154.5 c 128
 469.833333333 146.833333333 486.333333333 143 505 143 c 0
 519.666666667 143 533 143.833333333 545 145.5 c 128
 557 147.166666667 567.333333333 149.333333333 576 152 c 0
 586 154.666666667 595 157.666666667 603 161 c 1
 672 40 l 1
 666.666666667 34.6666666667 658.166666667 28.8333333333 646.5 22.5 c 128
 634.833333333 16.1666666667 621 10 605 4 c 128
 589 -2 570.833333333 -7 550.5 -11 c 128
 530.166666667 -15 508.333333333 -17 485 -17 c 0
 425 -17 376.333333333 -6 339 16 c 128
 301.666666667 38 272.666666667 68 252 106 c 128
 231.333333333 144 217.5 188.166666667 210.5 238.5 c 128
 203.5 288.833333333 200 342.666666667 200 400 c 2
 200 1400 l 1
 180 1600 l 1
 390 1620 l 1
 390 376 l 2
EndSplineSet
EndChar

StartChar: m
Encoding: 109 109 76
Width: 1800
VWidth: 2000
Flags: HW
LayerCount: 2
Fore
SplineSet
390 0 m 1
 200 0 l 1
 200 1100 l 1
 390 1120 l 1
 390 937 l 1
 451 1044 l 1
 463 1052 478 1060.33333333 496 1069 c 128
 514 1077.66666667 534.333333333 1085.5 557 1092.5 c 128
 579.666666667 1099.5 604 1105.33333333 630 1110 c 128
 656 1114.66666667 682.666666667 1117 710 1117 c 0
 784.666666667 1117 845.333333333 1098.83333333 892 1062.5 c 128
 938.666666667 1026.16666667 969 979.666666667 983 923 c 1
 1059 1040 l 1
 1082.33333333 1058.66666667 1115.33333333 1076.16666667 1158 1092.5 c 128
 1200.66666667 1108.83333333 1249.66666667 1117 1305 1117 c 0
 1355.66666667 1117 1399 1108.5 1435 1091.5 c 128
 1471 1074.5 1500.5 1050 1523.5 1018 c 128
 1546.5 986 1563.33333333 947.333333333 1574 902 c 128
 1584.66666667 856.666666667 1590 806 1590 750 c 2
 1590 0 l 1
 1400 0 l 1
 1400 740 l 2
 1400 776 1397.5 807.5 1392.5 834.5 c 128
 1387.5 861.5 1378.83333333 884.166666667 1366.5 902.5 c 128
 1354.16666667 920.833333333 1337.66666667 934.5 1317 943.5 c 128
 1296.33333333 952.5 1270.66666667 957 1240 957 c 0
 1220.66666667 957 1200.5 953.666666667 1179.5 947 c 128
 1158.5 940.333333333 1137.33333333 931.5 1116 920.5 c 128
 1094.66666667 909.5 1073.83333333 896.833333333 1053.5 882.5 c 128
 1033.16666667 868.166666667 1014 853.666666667 996 839 c 1
 998 819.666666667 999.166666667 803.5 999.5 790.5 c 128
 999.833333333 777.5 1000 760.666666667 1000 740 c 2
 1000 0 l 1
 810 0 l 1
 810 740 l 2
 810 812 798 866.166666667 774 902.5 c 128
 750 938.833333333 707 957 645 957 c 0
 625 957 603.666666667 954 581 948 c 128
 558.333333333 942 535.833333333 933.666666667 513.5 923 c 128
 491.166666667 912.333333333 469.333333333 900.166666667 448 886.5 c 128
 426.666666667 872.833333333 407.333333333 858.666666667 390 844 c 1
 390 0 l 1
EndSplineSet
EndChar

StartChar: n
Encoding: 110 110 77
Width: 1200
VWidth: 2000
Flags: HW
LayerCount: 2
Fore
SplineSet
390 0 m 1
 200 0 l 1
 200 1100 l 1
 390 1120 l 1
 390 937 l 1
 451 1044 l 1
 463 1052 478.333333333 1060.33333333 497 1069 c 128
 515.666666667 1077.66666667 536.5 1085.5 559.5 1092.5 c 128
 582.5 1099.5 607.333333333 1105.33333333 634 1110 c 128
 660.666666667 1114.66666667 687.666666667 1117 715 1117 c 0
 767.666666667 1117 812.166666667 1108.5 848.5 1091.5 c 128
 884.833333333 1074.5 914.333333333 1050 937 1018 c 128
 959.666666667 986 975.833333333 947.333333333 985.5 902 c 128
 995.166666667 856.666666667 1000 806 1000 750 c 2
 1000 0 l 1
 810 0 l 1
 810 750 l 2
 810 786 807.5 817 802.5 843 c 128
 797.5 869 788.833333333 890.5 776.5 907.5 c 128
 764.166666667 924.5 747.666666667 937 727 945 c 128
 706.333333333 953 680.666666667 957 650 957 c 0
 627.333333333 957 604.333333333 953.5 581 946.5 c 128
 557.666666667 939.5 534.833333333 930.5 512.5 919.5 c 128
 490.166666667 908.5 468.5 896.333333333 447.5 883 c 128
 426.5 869.666666667 407.333333333 856.666666667 390 844 c 1
 390 0 l 1
EndSplineSet
EndChar

StartChar: o
Encoding: 111 111 78
Width: 1200
VWidth: 2000
Flags: HW
LayerCount: 2
Fore
SplineSet
599 -17 m 0
 525 -17 457.5 -2.5 396.5 26.5 c 128
 335.5 55.5 283 95.5 239 146.5 c 128
 195 197.5 160.833333333 257.833333333 136.5 327.5 c 128
 112.166666667 397.166666667 100 472.333333333 100 553 c 256
 100 633.666666667 111.666666667 708.5 135 777.5 c 128
 158.333333333 846.5 191.666666667 906.166666667 235 956.5 c 128
 278.333333333 1006.83333333 330.833333333 1046.16666667 392.5 1074.5 c 128
 454.166666667 1102.83333333 523 1117 599 1117 c 0
 673 1117 740.666666667 1102.83333333 802 1074.5 c 128
 863.333333333 1046.16666667 916 1006.83333333 960 956.5 c 128
 1004 906.166666667 1038.33333333 846.5 1063 777.5 c 128
 1087.66666667 708.5 1100 633.666666667 1100 553 c 256
 1100 472.333333333 1088.16666667 397.166666667 1064.5 327.5 c 128
 1040.83333333 257.833333333 1007.33333333 197.5 964 146.5 c 128
 920.666666667 95.5 868 55.5 806 26.5 c 128
 744 -2.5 675 -17 599 -17 c 0
910 526 m 0
 910 580 904.166666667 633 892.5 685 c 128
 880.833333333 737 862.333333333 783.5 837 824.5 c 128
 811.666666667 865.5 779 898.666666667 739 924 c 128
 699 949.333333333 651 962 595 962 c 0
 541.666666667 962 495.666666667 951 457 929 c 128
 418.333333333 907 386.666666667 877.666666667 362 841 c 128
 337.333333333 804.333333333 319.166666667 762.666666667 307.5 716 c 128
 295.833333333 669.333333333 290 621.333333333 290 572 c 0
 290 518 295.833333333 465 307.5 413 c 128
 319.166666667 361 337.5 314.666666667 362.5 274 c 128
 387.5 233.333333333 419.833333333 200.5 459.5 175.5 c 128
 499.166666667 150.5 547 138 603 138 c 0
 655.666666667 138 701.333333333 149 740 171 c 128
 778.666666667 193 810.666666667 222.166666667 836 258.5 c 128
 861.333333333 294.833333333 880 336.333333333 892 383 c 128
 904 429.666666667 910 477.333333333 910 526 c 0
EndSplineSet
EndChar

StartChar: p
Encoding: 112 112 79
Width: 1200
VWidth: 2000
Flags: HW
LayerCount: 2
Fore
SplineSet
390 160 m 1
 554 160 l 2
 615.333333333 160 668.5 170.166666667 713.5 190.5 c 128
 758.5 210.833333333 795.5 239.333333333 824.5 276 c 128
 853.5 312.666666667 875 356.666666667 889 408 c 128
 903 459.333333333 910 516 910 578 c 0
 910 643.333333333 903.666666667 699.833333333 891 747.5 c 128
 878.333333333 795.166666667 861 834.5 839 865.5 c 128
 817 896.5 791.5 919.5 762.5 934.5 c 128
 733.5 949.5 702.666666667 957 670 957 c 256
 637.333333333 957 606.833333333 952.833333333 578.5 944.5 c 128
 550.166666667 936.166666667 524.166666667 925.666666667 500.5 913 c 128
 476.833333333 900.333333333 455.666666667 886.333333333 437 871 c 128
 418.333333333 855.666666667 402.666666667 841 390 827 c 1
 390 160 l 1
200 -500 m 1
 200 1100 l 1
 390 1120 l 1
 390 944 l 1
 485 1071 l 1
 504.333333333 1082.33333333 531.833333333 1092.83333333 567.5 1102.5 c 128
 603.166666667 1112.16666667 647 1117 699 1117 c 0
 754.333333333 1117 806.333333333 1104 855 1078 c 128
 903.666666667 1052 946.166666667 1015 982.5 967 c 128
 1018.83333333 919 1047.5 861 1068.5 793 c 128
 1089.5 725 1100 649 1100 565 c 0
 1100 483 1086.66666667 407.5 1060 338.5 c 128
 1033.33333333 269.5 995.5 209.833333333 946.5 159.5 c 128
 897.5 109.166666667 838.166666667 70 768.5 42 c 128
 698.833333333 14 621 0 535 0 c 2
 390 0 l 1
 390 -500 l 1
 200 -500 l 1
EndSplineSet
EndChar

StartChar: q
Encoding: 113 113 80
Width: 1200
VWidth: 2000
Flags: HW
LayerCount: 2
Fore
SplineSet
810 935 m 1
 797.333333333 937.666666667 782.5 940.333333333 765.5 943 c 128
 748.5 945.666666667 730.5 948 711.5 950 c 128
 692.5 952 673 953.666666667 653 955 c 128
 633 956.333333333 614 957 596 957 c 0
 534.666666667 957 484.666666667 944 446 918 c 128
 407.333333333 892 376.666666667 858.333333333 354 817 c 128
 331.333333333 775.666666667 315.833333333 729.166666667 307.5 677.5 c 128
 299.166666667 625.833333333 295 574.666666667 295 524 c 0
 295 457.333333333 301.333333333 400 314 352 c 128
 326.666666667 304 343.5 264.5 364.5 233.5 c 128
 385.5 202.5 409.833333333 179.666666667 437.5 165 c 128
 465.166666667 150.333333333 494.333333333 143 525 143 c 0
 551 143 576.666666667 146.5 602 153.5 c 128
 627.333333333 160.5 652 169.833333333 676 181.5 c 128
 700 193.166666667 723.166666667 206.666666667 745.5 222 c 128
 767.833333333 237.333333333 789.333333333 253.333333333 810 270 c 1
 810 935 l 1
810 136 m 1
 705 29 l 1
 671 13 637.333333333 1.33333333333 604 -6 c 128
 570.666666667 -13.3333333333 538 -17 506 -17 c 0
 450.666666667 -17 398.5 -4.5 349.5 20.5 c 128
 300.5 45.5 257.5 81.1666666667 220.5 127.5 c 128
 183.5 173.833333333 154.166666667 230.5 132.5 297.5 c 128
 110.833333333 364.5 100 440 100 524 c 0
 100 616 112.333333333 698.666666667 137 772 c 128
 161.666666667 845.333333333 196 907.5 240 958.5 c 128
 284 1009.5 336.666666667 1048.66666667 398 1076 c 128
 459.333333333 1103.33333333 526.666666667 1117 600 1117 c 0
 642 1117 684 1115.16666667 726 1111.5 c 128
 768 1107.83333333 807 1103.5 843 1098.5 c 128
 879 1093.5 910.833333333 1087.83333333 938.5 1081.5 c 128
 966.166666667 1075.16666667 986.666666667 1069.66666667 1000 1065 c 1
 1000 -500 l 1
 810 -500 l 1
 810 136 l 1
EndSplineSet
EndChar

StartChar: r
Encoding: 114 114 81
Width: 800
VWidth: 2000
Flags: HW
LayerCount: 2
Fore
SplineSet
671 948 m 0
 644.333333333 948 618 942.666666667 592 932 c 128
 566 921.333333333 541 907 517 889 c 128
 493 871 470.333333333 850 449 826 c 128
 427.666666667 802 408 776.666666667 390 750 c 1
 390 0 l 1
 200 0 l 1
 200 1100 l 1
 390 1120 l 1
 390 895 l 1
 490 1070 l 1
 498.666666667 1075.33333333 509.5 1080.83333333 522.5 1086.5 c 128
 535.5 1092.16666667 550.333333333 1097.16666667 567 1101.5 c 128
 583.666666667 1105.83333333 601.5 1109.5 620.5 1112.5 c 128
 639.5 1115.5 659 1117 679 1117 c 0
 709 1117 734.166666667 1114.33333333 754.5 1109 c 128
 774.833333333 1103.66666667 790 1098.66666667 800 1094 c 1
 790 928 l 1
 780 931.333333333 765 935.5 745 940.5 c 128
 725 945.5 700.333333333 948 671 948 c 0
EndSplineSet
EndChar

StartChar: s
Encoding: 115 115 82
Width: 900
VWidth: 2000
Flags: HW
LayerCount: 2
Fore
SplineSet
661 919 m 1
 649 925 634.666666667 931 618 937 c 128
 601.333333333 943 584 948.333333333 566 953 c 128
 548 957.666666667 529.833333333 961.333333333 511.5 964 c 128
 493.166666667 966.666666667 475.666666667 968 459 968 c 0
 388.333333333 968 338.333333333 957.5 309 936.5 c 128
 279.666666667 915.5 265 884 265 842 c 0
 265 814 274.666666667 790.833333333 294 772.5 c 128
 313.333333333 754.166666667 338.333333333 737.666666667 369 723 c 128
 399.666666667 708.333333333 433.833333333 694.5 471.5 681.5 c 128
 509.166666667 668.5 546 653 582 635 c 0
 608 622.333333333 634.333333333 607.333333333 661 590 c 128
 687.666666667 572.666666667 711.666666667 552.333333333 733 529 c 128
 754.333333333 505.666666667 771.666666667 479.333333333 785 450 c 128
 798.333333333 420.666666667 805 387.666666667 805 351 c 0
 805 283.666666667 793.666666667 226.666666667 771 180 c 128
 748.333333333 133.333333333 717.5 95.5 678.5 66.5 c 128
 639.5 37.5 593.833333333 16.3333333333 541.5 3 c 128
 489.166666667 -10.3333333333 433.333333333 -17 374 -17 c 0
 351.333333333 -17 325.666666667 -14.8333333333 297 -10.5 c 128
 268.333333333 -6.16666666667 239.666666667 -0.166666666667 211 7.5 c 128
 182.333333333 15.1666666667 155 24.3333333333 129 35 c 128
 103 45.6666666667 81.3333333333 57 64 69 c 1
 130 201 l 1
 146 193 165 185.5 187 178.5 c 128
 209 171.5 231.666666667 165.333333333 255 160 c 128
 278.333333333 154.666666667 301.5 150.5 324.5 147.5 c 128
 347.5 144.5 368 143 386 143 c 0
 416.666666667 143 446.166666667 146.166666667 474.5 152.5 c 128
 502.833333333 158.833333333 527.833333333 169 549.5 183 c 128
 571.166666667 197 588.5 215.166666667 601.5 237.5 c 128
 614.5 259.833333333 621 287.333333333 621 320 c 0
 621 344.666666667 615.833333333 366.333333333 605.5 385 c 128
 595.166666667 403.666666667 581.166666667 420.166666667 563.5 434.5 c 128
 545.833333333 448.833333333 525.333333333 462 502 474 c 128
 478.666666667 486 454 497.5 428 508.5 c 128
 402 519.5 375.333333333 530.833333333 348 542.5 c 128
 320.666666667 554.166666667 294.666666667 567 270 581 c 0
 246.666666667 594.333333333 224.166666667 609 202.5 625 c 128
 180.833333333 641 161.666666667 659 145 679 c 128
 128.333333333 699 115 721.5 105 746.5 c 128
 95 771.5 90 800 90 832 c 0
 90 882.666666667 99 926.166666667 117 962.5 c 128
 135 998.833333333 160.333333333 1028.33333333 193 1051 c 128
 225.666666667 1073.66666667 265 1090.33333333 311 1101 c 128
 357 1111.66666667 407.666666667 1117 463 1117 c 0
 488.333333333 1117 513.333333333 1115 538 1111 c 128
 562.666666667 1107 586.333333333 1101.83333333 609 1095.5 c 128
 631.666666667 1089.16666667 652.333333333 1081.66666667 671 1073 c 128
 689.666666667 1064.33333333 705.666666667 1055.66666667 719 1047 c 1
 661 919 l 1
EndSplineSet
EndChar

StartChar: t
Encoding: 116 116 83
Width: 800
VWidth: 2000
Flags: HW
LayerCount: 2
Fore
SplineSet
390 376 m 2
 390 332 392.5 295.166666667 397.5 265.5 c 128
 402.5 235.833333333 409.833333333 211.833333333 419.5 193.5 c 128
 429.166666667 175.166666667 441.166666667 162.166666667 455.5 154.5 c 128
 469.833333333 146.833333333 486.333333333 143 505 143 c 0
 519.666666667 143 533 143.833333333 545 145.5 c 128
 557 147.166666667 567.333333333 149.333333333 576 152 c 0
 586 154.666666667 595 157.666666667 603 161 c 1
 672 40 l 1
 666.666666667 34.6666666667 658.166666667 28.8333333333 646.5 22.5 c 128
 634.833333333 16.1666666667 621 10 605 4 c 128
 589 -2 570.833333333 -7 550.5 -11 c 128
 530.166666667 -15 508.333333333 -17 485 -17 c 0
 425 -17 376.333333333 -6 339 16 c 128
 301.666666667 38 272.666666667 68 252 106 c 128
 231.333333333 144 217.5 188.166666667 210.5 238.5 c 128
 203.5 288.833333333 200 342.666666667 200 400 c 2
 200 940 l 1
 50 940 l 1
 50 1100 l 1
 200 1100 l 1
 200 1309 l 1
 385 1420 l 1
 385 1100 l 1
 725 1100 l 1
 705 940 l 1
 390 940 l 1
 390 376 l 2
EndSplineSet
EndChar

StartChar: u
Encoding: 117 117 84
Width: 1200
VWidth: 2000
Flags: HW
LayerCount: 2
Fore
SplineSet
810 1100 m 1
 1000 1120 l 1
 1000 0 l 1
 810 0 l 1
 810 163 l 1
 749 56 l 1
 737 48 722.833333333 39.6666666667 706.5 31 c 128
 690.166666667 22.3333333333 671.666666667 14.5 651 7.5 c 128
 630.333333333 0.5 607.666666667 -5.33333333333 583 -10 c 128
 558.333333333 -14.6666666667 532.333333333 -17 505 -17 c 0
 451.666666667 -17 405.833333333 -7.33333333333 367.5 12 c 128
 329.166666667 31.3333333333 297.666666667 58.3333333333 273 93 c 128
 248.333333333 127.666666667 230 168.833333333 218 216.5 c 128
 206 264.166666667 200 316 200 372 c 2
 200 1100 l 1
 390 1120 l 1
 390 372 l 2
 390 300 404.5 243.833333333 433.5 203.5 c 128
 462.5 163.166666667 508 143 570 143 c 0
 592.666666667 143 615 146.666666667 637 154 c 128
 659 161.333333333 680.333333333 170.666666667 701 182 c 128
 721.666666667 193.333333333 741.166666667 205.666666667 759.5 219 c 128
 777.833333333 232.333333333 794.666666667 245.333333333 810 258 c 1
 810 1100 l 1
EndSplineSet
EndChar

StartChar: v
Encoding: 118 118 85
Width: 1100
VWidth: 2000
Flags: HW
LayerCount: 2
Fore
SplineSet
1005 1120 m 1
 634 -20 l 1
 428 0 l 1
 71 1100 l 1
 254 1120 l 1
 493 381 l 1
 546 149 l 1
 596 381 l 1
 830 1100 l 1
 1005 1120 l 1
EndSplineSet
EndChar

StartChar: w
Encoding: 119 119 86
Width: 1500
VWidth: 2000
Flags: HW
LayerCount: 2
Fore
SplineSet
997 480 m 1
 1039 200 l 1
 1079 480 l 1
 1250 1100 l 1
 1412 1117 l 1
 1103 0 l 1
 951 0 l 1
 780 620 l 1
 742 900 l 1
 701 620 l 1
 530 0 l 1
 378 0 l 1
 75 1100 l 1
 247 1120 l 1
 423 480 l 1
 466 200 l 1
 506 480 l 1
 677 1100 l 1
 825 1100 l 1
 997 480 l 1
EndSplineSet
EndChar

StartChar: x
Encoding: 120 120 87
Width: 1100
VWidth: 2000
Flags: HW
LayerCount: 2
Fore
SplineSet
851 0 m 1
 583 382 l 1
 538 500 l 1
 493 382 l 1
 225 0 l 1
 26 0 l 1
 438 588 l 1
 80 1100 l 1
 291 1117 l 1
 526 781 l 1
 565 670 l 1
 603 781 l 1
 828 1100 l 1
 1039 1117 l 1
 665 583 l 1
 1076 0 l 1
 851 0 l 1
EndSplineSet
EndChar

StartChar: y
Encoding: 121 121 88
Width: 1100
VWidth: 2000
Flags: HW
LayerCount: 2
Fore
SplineSet
602 364 m 1
 871 1100 l 1
 1051 1117 l 1
 637 -17 l 2
 616.333333333 -73 593.833333333 -128.666666667 569.5 -184 c 128
 545.166666667 -239.333333333 517.666666667 -288.833333333 487 -332.5 c 128
 456.333333333 -376.166666667 422.5 -411.666666667 385.5 -439 c 128
 348.5 -466.333333333 307.333333333 -480 262 -480 c 0
 228 -480 194.666666667 -473.166666667 162 -459.5 c 128
 129.333333333 -445.833333333 99.3333333333 -427 72 -403 c 1
 145 -296 l 1
 156.333333333 -304 169.333333333 -311.333333333 184 -318 c 128
 198.666666667 -324.666666667 214 -328 230 -328 c 0
 252 -328 273.333333333 -319.5 294 -302.5 c 128
 314.666666667 -285.5 334.5 -263.666666667 353.5 -237 c 128
 372.5 -210.333333333 390.166666667 -180.333333333 406.5 -147 c 128
 422.833333333 -113.666666667 437.666666667 -80.3333333333 451 -47 c 1
 34 1100 l 1
 224 1117 l 1
 498 364 l 1
 550 132 l 1
 602 364 l 1
EndSplineSet
EndChar

StartChar: z
Encoding: 122 122 89
Width: 1000
VWidth: 2000
Flags: HW
LayerCount: 2
Fore
SplineSet
880 160 m 1
 900 0 l 1
 81 0 l 1
 61 50 l 1
 524 826 l 1
 676 980 l 1
 471 940 l 1
 148 940 l 1
 128 1100 l 1
 832 1100 l 1
 852 1051 l 1
 403 280 l 1
 252 120 l 1
 457 160 l 1
 880 160 l 1
EndSplineSet
EndChar

StartChar: braceleft
Encoding: 123 123 90
Width: 1298
VWidth: 2000
Flags: HW
LayerCount: 2
Fore
SplineSet
228 625 m 1
 350 625 l 1
 382.666666667 629.666666667 408.833333333 638.666666667 428.5 652 c 128
 448.166666667 665.333333333 463.333333333 682.666666667 474 704 c 128
 484.666666667 725.333333333 491.666666667 750.833333333 495 780.5 c 128
 498.333333333 810.166666667 500 843.333333333 500 880 c 2
 500 1119 l 2
 500 1175.66666667 505.166666667 1228.33333333 515.5 1277 c 128
 525.833333333 1325.66666667 543.666666667 1368 569 1404 c 128
 594.333333333 1440 628.166666667 1468.16666667 670.5 1488.5 c 128
 712.833333333 1508.83333333 766 1519 830 1519 c 0
 860.666666667 1519 886.833333333 1517.83333333 908.5 1515.5 c 128
 930.166666667 1513.16666667 949.5 1509.83333333 966.5 1505.5 c 128
 983.5 1501.16666667 998.833333333 1496.16666667 1012.5 1490.5 c 128
 1026.16666667 1484.83333333 1040 1478.66666667 1054 1472 c 1
 991 1349 l 1
 978.333333333 1356.33333333 961.166666667 1362.66666667 939.5 1368 c 128
 917.833333333 1373.33333333 898.666666667 1376 882 1376 c 2
 866 1376 l 2
 860.666666667 1376 855.333333333 1375.33333333 850 1374 c 0
 817.333333333 1369.33333333 791.166666667 1360.33333333 771.5 1347 c 128
 751.833333333 1333.66666667 736.666666667 1316.33333333 726 1295 c 128
 715.333333333 1273.66666667 708.333333333 1248.16666667 705 1218.5 c 128
 701.666666667 1188.83333333 700 1155.66666667 700 1119 c 2
 700 880 l 2
 700 810.666666667 692 747.333333333 676 690 c 128
 660 632.666666667 632.333333333 586 593 550 c 1
 613 532 629.666666667 511.166666667 643 487.5 c 128
 656.333333333 463.833333333 667.333333333 437.833333333 676 409.5 c 128
 684.666666667 381.166666667 690.833333333 351 694.5 319 c 128
 698.166666667 287 700 254 700 220 c 2
 700 -20 l 2
 700 -56.6666666667 701.666666667 -89.8333333333 705 -119.5 c 128
 708.333333333 -149.166666667 715.333333333 -174.666666667 726 -196 c 128
 736.666666667 -217.333333333 751.833333333 -234.666666667 771.5 -248 c 128
 791.166666667 -261.333333333 817.333333333 -270.333333333 850 -275 c 0
 855.333333333 -276.333333333 860.666666667 -277 866 -277 c 2
 882 -277 l 2
 898.666666667 -277 917.833333333 -274.333333333 939.5 -269 c 128
 961.166666667 -263.666666667 978.333333333 -257.333333333 991 -250 c 1
 1054 -373 l 1
 1040 -379.666666667 1026.16666667 -385.833333333 1012.5 -391.5 c 128
 998.833333333 -397.166666667 983.5 -402.166666667 966.5 -406.5 c 128
 949.5 -410.833333333 930.166666667 -414.166666667 908.5 -416.5 c 128
 886.833333333 -418.833333333 860.666666667 -420 830 -420 c 0
 766 -420 712.833333333 -409.833333333 670.5 -389.5 c 128
 628.166666667 -369.166666667 594.333333333 -341 569 -305 c 128
 543.666666667 -269 525.833333333 -226.666666667 515.5 -178 c 128
 505.166666667 -129.333333333 500 -76.6666666667 500 -20 c 2
 500 220 l 2
 500 256.666666667 498.333333333 289.833333333 495 319.5 c 128
 491.666666667 349.166666667 484.666666667 374.666666667 474 396 c 128
 463.333333333 417.333333333 448.166666667 434.666666667 428.5 448 c 128
 408.833333333 461.333333333 382.666666667 470.333333333 350 475 c 1
 228 475 l 1
 228 625 l 1
EndSplineSet
EndChar

StartChar: bar
Encoding: 124 124 91
Width: 400
VWidth: 2000
Flags: HW
LayerCount: 2
Fore
SplineSet
300 1520 m 1
 300 -400 l 1
 100 -400 l 1
 100 1500 l 1
 300 1520 l 1
EndSplineSet
EndChar

StartChar: braceright
Encoding: 125 125 92
Width: 1200
VWidth: 2000
Flags: HW
LayerCount: 2
Fore
SplineSet
1074 625 m 1
 1074 475 l 1
 952 475 l 1
 919.333333333 470.333333333 893.166666667 461.333333333 873.5 448 c 128
 853.833333333 434.666666667 838.666666667 417.333333333 828 396 c 128
 817.333333333 374.666666667 810.333333333 349.166666667 807 319.5 c 128
 803.666666667 289.833333333 802 256.666666667 802 220 c 2
 802 -20 l 2
 802 -76.6666666667 796.833333333 -129.333333333 786.5 -178 c 128
 776.166666667 -226.666666667 758.333333333 -269 733 -305 c 128
 707.666666667 -341 673.833333333 -369.166666667 631.5 -389.5 c 128
 589.166666667 -409.833333333 536 -420 472 -420 c 0
 441.333333333 -420 415.166666667 -418.833333333 393.5 -416.5 c 128
 371.833333333 -414.166666667 352.5 -410.833333333 335.5 -406.5 c 128
 318.5 -402.166666667 303.166666667 -397.166666667 289.5 -391.5 c 128
 275.833333333 -385.833333333 262 -379.666666667 248 -373 c 1
 311 -250 l 1
 323.666666667 -257.333333333 340.833333333 -263.666666667 362.5 -269 c 128
 384.166666667 -274.333333333 403.333333333 -277 420 -277 c 2
 436 -277 l 2
 441.333333333 -277 446.666666667 -276.333333333 452 -275 c 0
 484.666666667 -270.333333333 510.833333333 -261.333333333 530.5 -248 c 128
 550.166666667 -234.666666667 565.333333333 -217.333333333 576 -196 c 128
 586.666666667 -174.666666667 593.666666667 -149.166666667 597 -119.5 c 128
 600.333333333 -89.8333333333 602 -56.6666666667 602 -20 c 2
 602 220 l 2
 602 254 603.833333333 287 607.5 319 c 128
 611.166666667 351 617.333333333 381.166666667 626 409.5 c 128
 634.666666667 437.833333333 645.666666667 463.833333333 659 487.5 c 128
 672.333333333 511.166666667 689 532 709 550 c 1
 669.666666667 586 642 632.666666667 626 690 c 128
 610 747.333333333 602 810.666666667 602 880 c 2
 602 1119 l 2
 602 1155.66666667 600.333333333 1188.83333333 597 1218.5 c 128
 593.666666667 1248.16666667 586.666666667 1273.66666667 576 1295 c 128
 565.333333333 1316.33333333 550.166666667 1333.66666667 530.5 1347 c 128
 510.833333333 1360.33333333 484.666666667 1369.33333333 452 1374 c 0
 446.666666667 1375.33333333 441.333333333 1376 436 1376 c 2
 420 1376 l 2
 403.333333333 1376 384.166666667 1373.33333333 362.5 1368 c 128
 340.833333333 1362.66666667 323.666666667 1356.33333333 311 1349 c 1
 248 1472 l 1
 262 1478.66666667 275.833333333 1484.83333333 289.5 1490.5 c 128
 303.166666667 1496.16666667 318.5 1501.16666667 335.5 1505.5 c 128
 352.5 1509.83333333 371.833333333 1513.16666667 393.5 1515.5 c 128
 415.166666667 1517.83333333 441.333333333 1519 472 1519 c 0
 536 1519 589.166666667 1508.83333333 631.5 1488.5 c 128
 673.833333333 1468.16666667 707.666666667 1440 733 1404 c 128
 758.333333333 1368 776.166666667 1325.66666667 786.5 1277 c 128
 796.833333333 1228.33333333 802 1175.66666667 802 1119 c 2
 802 880 l 2
 802 843.333333333 803.666666667 810.166666667 807 780.5 c 128
 810.333333333 750.833333333 817.333333333 725.333333333 828 704 c 128
 838.666666667 682.666666667 853.833333333 665.333333333 873.5 652 c 128
 893.166666667 638.666666667 919.333333333 629.666666667 952 625 c 1
 1074 625 l 1
EndSplineSet
EndChar

StartChar: asciitilde
Encoding: 126 126 93
Width: 1500
VWidth: 2000
Flags: HW
LayerCount: 2
Fore
SplineSet
193 484 m 1
 200.333333333 521.333333333 214.5 559.166666667 235.5 597.5 c 128
 256.5 635.833333333 282 670.333333333 312 701 c 128
 342 731.666666667 375.666666667 756.666666667 413 776 c 128
 450.333333333 795.333333333 489.666666667 805 531 805 c 0
 561 805 589.833333333 800.333333333 617.5 791 c 128
 645.166666667 781.666666667 672 770 698 756 c 128
 724 742 749.166666667 726.833333333 773.5 710.5 c 128
 797.833333333 694.166666667 821.833333333 679 845.5 665 c 128
 869.166666667 651 892.666666667 639.333333333 916 630 c 128
 939.333333333 620.666666667 963 616 987 616 c 256
 1011 616 1032.66666667 621.5 1052 632.5 c 128
 1071.33333333 643.5 1088 657.5 1102 674.5 c 128
 1116 691.5 1127.83333333 710.333333333 1137.5 731 c 128
 1147.16666667 751.666666667 1154.66666667 772 1160 792 c 1
 1306 776 l 1
 1299.33333333 734.666666667 1286.16666667 693 1266.5 651 c 128
 1246.83333333 609 1222 571 1192 537 c 128
 1162 503 1127.33333333 475.333333333 1088 454 c 128
 1048.66666667 432.666666667 1006.66666667 422 962 422 c 0
 938 422 913.333333333 426.666666667 888 436 c 128
 862.666666667 445.333333333 837.333333333 457 812 471 c 128
 786.666666667 485 761 500.166666667 735 516.5 c 128
 709 532.833333333 683.166666667 548 657.5 562 c 128
 631.833333333 576 606.333333333 587.666666667 581 597 c 128
 555.666666667 606.333333333 531 611 507 611 c 0
 486.333333333 611 467.166666667 606.833333333 449.5 598.5 c 128
 431.833333333 590.166666667 416 579.166666667 402 565.5 c 128
 388 551.833333333 376 536.5 366 519.5 c 128
 356 502.5 348 485.333333333 342 468 c 1
 193 484 l 1
EndSplineSet
EndChar
